<svg xmlns="http://www.w3.org/2000/svg" viewBox="0 0 375.11 324.08"><defs><style>.cls-1{isolation:isolate;}.cls-2,.cls-23,.cls-3{fill:#fff;}.cls-2{opacity:0.47;}.cls-3{opacity:0.52;}.cls-4{fill:#ffae80;}.cls-5{fill:#ea4a49;}.cls-6{fill:#212121;}.cls-7{fill:#1d1715;}.cls-8{fill:#16191e;}.cls-9{fill:#5e4a4c;}.cls-10{fill:#1d1d1b;}.cls-10,.cls-13{opacity:0.3;}.cls-11{fill:#ebb677;}.cls-12{fill:#c21e1d;}.cls-13{fill:#456f96;mix-blend-mode:multiply;}.cls-14{fill:#eadff8;}.cls-15{fill:#3c3c3b;}.cls-16{fill:#fff5c4;}.cls-17{fill:#ff4f5b;}.cls-18{opacity:0.5;}.cls-19{fill:#1a2e35;}.cls-20{fill:#fafafa;}.cls-21{fill:#e1e1e1;}.cls-22{opacity:0.4;}.cls-24{fill:#375a64;}</style></defs><title>login-customer_1</title><g class="cls-1"><g id="Layer_2" data-name="Layer 2"><g id="Layer_1-2" data-name="Layer 1"><ellipse class="cls-2" cx="156.44" cy="175.48" rx="156.44" ry="128.61"/><ellipse class="cls-3" cx="226.91" cy="121.84" rx="148.2" ry="121.84"/><path class="cls-4" d="M106.56,179.51l.47-.43.8-.52,2.15-.15a.59.59,0,0,0,.57-.47l.7-.05a.61.61,0,0,0,.57-.76.86.86,0,0,0-.11-.28.69.69,0,0,0,.11-.69.94.94,0,0,0-1-.6l-3,.64-.11,0-.06,0-.06,0-.07,0-2.16,1.94a.74.74,0,0,0,0,1.08A.84.84,0,0,0,106.56,179.51Z"/><path class="cls-4" d="M104.12,186.75l1.32-1.27a3.33,3.33,0,0,0,.73-1.08l.43-1.07a1.69,1.69,0,0,1,.23-.36l1.81-1.88a.76.76,0,0,0-.11-1.09.83.83,0,0,0-1.14-.05l-1.22,1.26.44-1.77,1.56-2.16,2.53-1.11a.68.68,0,0,0,.27-1,.9.9,0,0,0-1.11-.42s-3,1.4-3,1.41-1.61,1.47-2.06,2c-.09.1-.18.25-.29.4a14.29,14.29,0,0,0-2,4.12l-1,2.17Z"/><path class="cls-5" d="M79.3,214.78a24.77,24.77,0,0,1,3.83-4.21l.38-.39c2-2.07,6.37-6.32,6.37-6.32s8.78-14.79,12.16-21l4,6.88c-2.66,5.64-7,16.38-8.79,18.65-3.27,4.26-7,8.44-10.54,12.69a8,8,0,0,1-4.23,2.53,3.12,3.12,0,0,1-1.21,0,3.57,3.57,0,0,1-2.72-2.9A7.61,7.61,0,0,1,79.3,214.78Z"/><path class="cls-4" d="M127.85,252.42a3.56,3.56,0,0,1,.14,1.81,12.85,12.85,0,0,1-1.08,3.66c-.61,1.48-4-.36-4.09-.67a.82.82,0,0,1,.27-.86c.6-.42,1.59.34,2.11-.17a1.08,1.08,0,0,0,.24-.7,1.69,1.69,0,0,0-.68-1.74,3,3,0,0,0-1.34-.05,4,4,0,0,1-3.29-2.1c-.42-1.09.48-2.14,1.39-2.88a1.83,1.83,0,0,1,1.46-.45A31.91,31.91,0,0,1,127.85,252.42Z"/><path class="cls-6" d="M83,322.6c0,.13,0,.27,0,.41h9.46v-.16a.89.89,0,0,0,0-.15.38.38,0,0,0,0-.1,5.45,5.45,0,0,0-.26-1.28,3,3,0,0,0-2.83-2.1,11.18,11.18,0,0,0-1.45-.07h-.38c-2.24,0-4.1.21-4.45,2.51A5.37,5.37,0,0,0,83,322.6Z"/><polygon class="cls-7" points="82.99 322.6 83.02 323.01 83.08 324.08 92.55 324.08 92.48 323.01 92.47 322.85 92.47 322.69 92.46 322.6 82.99 322.6"/><path class="cls-7" d="M103.12,322.07c0,.16,0,.34,0,.53l0,.41h15.35a1.58,1.58,0,0,0,0-.41c-.43-2.2-3.19-3.33-6.3-3.79a25.11,25.11,0,0,0-6.82,0,12.06,12.06,0,0,0-1.66.36C103.4,319.24,103,319.4,103.12,322.07Z"/><path class="cls-8" d="M103.15,322.6l0,.41.07,1.07h15.35l-.07-1.07s0-.41,0-.41Z"/><path class="cls-9" d="M82.28,320.79c0,.39.31.67.8.87a10.75,10.75,0,0,0,3.69.33l.86-.05a41.66,41.66,0,0,0,4.56-.62c.42-.09.82-.15,1.15-.24L94.13,298l0-.92.36-10.56,3.07-20.3v-.44l3.29,20.17.05.34c0,4.85-.2,10.1-.25,15.21-.08,8,.14,15.68,1.78,20.9a.81.81,0,0,1,.27-.11,2,2,0,0,1,.39-.2c.71-.26,1.54-.51,2.45-.75,2.2-.6,4.8-1.22,6.6-2.45v-.05l-.94-31.9-1-17.59-.14-2.58-.32-5.42v-.18l-.19-3.41-.25-4.37-.13-2.1,0-.82-.09-1.41-.09-1.42s-.08-1.71-.08-1.71H83c0,.63-.09,1.24-.11,1.87,0,.41,0,.84,0,1.26,0,1.54.06,3,.19,4.49,0,.25,0,.5.09.74a39.43,39.43,0,0,0,.75,4.35c.09.43.2.85.31,1.27.16.64.33,1.29.54,1.92,0,.48,0,.95-.06,1.44s0,1.21-.07,1.83l-.14,2.58c0,.82-.07,1.63-.11,2.44-.27,5.35-.5,10.48-.46,14.4,0,.4,0,.78,0,1.15,0,1.45-.08,3.79-.29,6.6C83,301.59,81.45,316.16,82.28,320.79Z"/><path class="cls-10" d="M83.15,254.26a37.75,37.75,0,0,0,.75,4.36c.1.42.2.83.31,1.25.16.65.34,1.3.55,1.93q-.08,1.62-.15,3.27l-.12,2.58c0,.82-.09,1.63-.12,2.44,2.51-.2,5.55-.16,8.72-.09,1.17,2.3,1,5.18.77,7.81a12.13,12.13,0,0,1-.64,3.33A4.18,4.18,0,0,1,91,283.57a7.14,7.14,0,0,1,2,3.91,31.61,31.61,0,0,1,.42,4.47c.12,2,.39,4,.68,6l0-.92.37-10.55,3.06-20.31v-.44l3.29,20.17.05.34c0,4.86-.19,10.11-.25,15.21,0,.09,0,.19,0,.28.18-1.95.32-3.91.41-5.86a11.24,11.24,0,0,1,.34-2.71c.16-.58.43-1.13.62-1.7.69-2,.49-4.32,1.54-6.18a1.7,1.7,0,0,0,.22-.52,1.36,1.36,0,0,0-.12-.63,32.68,32.68,0,0,1-1.79-14,38.93,38.93,0,0,0,8.29-.79l-.14-2.58-.33-5.6-.19-3.41-.25-4.37c-4.66-.07-9.31.63-14,.85C91.28,254.4,87.21,254.23,83.15,254.26Z"/><polygon class="cls-11" points="93.78 206.75 96.32 206.36 96.7 208.8 93.91 208.71 93.78 206.75"/><path class="cls-4" d="M86.18,208.92l-.44-8.13c3.48-.12,8.13-.37,8.93-.55,0,0,.37,5.9.75,8.43C97,215.14,89.35,216.06,86.18,208.92Z"/><path class="cls-4" d="M84.67,202.3a9.28,9.28,0,0,1-1.28-3.89c-.93-7.88,3.73-7.46,6.63-7.9,3.42-.36,7,1.45,8,6.64a7.3,7.3,0,0,1-.24,1l1.56,2.75a.86.86,0,0,1-.43,1.22l-.72.32c.06.52.47,2.77.47,2.77.15,1.33-.12,3.49-1.91,3.6-.73-.12-2.5-1.31-3.44-6C92,202.84,85.31,203.38,84.67,202.3Z"/><path d="M86.06,205.71c9.36,1.06,6.9-3.2,7-4.17,0-.29,1.48-.24,1.48-.53-.13-4.81-2.05-7.72,1.87-7.75,1.41-.46,1.54-5.16-7.3-3.57-3.91.7-6.65,3.32-6.77,7.29S84.43,205.19,86.06,205.71Z"/><path class="cls-4" d="M91.07,201c.19,1.23,1.2,2.52,1.81,2.43s.5-1.13.32-2.36c-.12-.82-.26-1.94-1-2.1S90.8,199.15,91.07,201Z"/><path class="cls-5" d="M78,218.16a3.33,3.33,0,0,0,0,.54v.06l.5,6,0,.21s2.27,21.43,1.49,35a3.18,3.18,0,0,0,3.56,3.35l1-.1a76.88,76.88,0,0,1,13.13.66c1.42.18,2.85.37,4.25.57a5.83,5.83,0,0,0,6.65-5.33v-.05l0-.32a72.07,72.07,0,0,0,.41-7.54v-.79c0-.71,0-1.41,0-2.14s-.06-1.61-.1-2.41c0-.57-.06-1.16-.1-1.74s-.09-1.38-.14-2.07c0-.3,0-.61-.09-.93s-.06-.76-.1-1.13-.06-.68-.1-1-.07-.67-.11-1c0,0,0-.08,0-.12,0-.31-.06-.59-.1-.88s-.07-.67-.11-1c-.2-1.73-.42-3.44-.67-5.06-.27-1.84-.54-3.59-.82-5.2-.15-.84-.29-1.65-.43-2.42-.26-1.38-.49-2.62-.71-3.69s-.39-1.94-.55-2.62c-.2-1-.33-1.51-.33-1.51-.92-1.67-.62-2.93-2.39-3.85l-.16-.06-.77-.26-.1,0c-1.81-.59-5.37-1.67-5.37-1.67h-.17l-.1,0-8.74.56-1.62.11-3.93,2.27A6.53,6.53,0,0,0,78,218.16Z"/><path class="cls-12" d="M94.47,208.13a27.74,27.74,0,0,0-8.6.29l-.65,1.88c.62,1.07,6.27,1,10.64-.68l-.18-.48A1.64,1.64,0,0,0,94.47,208.13Z"/><path class="cls-13" d="M100.13,219.74c1.25,8.74,2.54,17.59,4.64,26.16a106.53,106.53,0,0,0,4,12.87q.48,1.29,1,2.55v-.18l-.19-3.41-.25-4.37-.13-2.1,0-.82c0-.71,0-1.41,0-2.14s-.06-1.61-.1-2.41c0-.57-.06-1.16-.1-1.74s-.09-1.38-.14-2.07c0-.3,0-.61-.09-.93s-.06-.76-.1-1.13-.06-.68-.1-1-.07-.67-.11-1c0,0,0-.08,0-.12C104.7,232.42,103.07,225.7,100.13,219.74Z"/><path class="cls-5" d="M97.45,212.25a3.54,3.54,0,0,0-.52,1.13,8.21,8.21,0,0,0,.35,4.84.64.64,0,0,0,0,.07c.59,1.35,1.18,2.71,1.75,4.06l1.08,2.55c.53,1.23,1.05,2.45,1.59,3.67.72,1.62,1.45,3.22,2.22,4.78s4.68,6.13,8.36,10.4l.78.92c1.72,2,4.45,5.79,5.64,7.29l6.14-3.84c-4-5.79-13.6-19.3-13.6-19.3s-1.83-5.8-2.8-8.5c-.06-.17-.13-.34-.18-.51-.46-1.39-.8-2.68-1.34-3.91a10.12,10.12,0,0,0-.71-1.39l-.1-.15a5,5,0,0,0-.47-.64l-.06-.08a7.91,7.91,0,0,0-4.36-2.5A3.61,3.61,0,0,0,97.45,212.25Z"/><path class="cls-13" d="M92.22,243.53c-.89-4.36-2.71-8.49-3.77-12.81s-1.27-9.13.91-13c-.59,5.25,1.49,10.36,2.75,15.49a50.71,50.71,0,0,1,1,18.77A61.08,61.08,0,0,0,92.22,243.53Z"/><path class="cls-14" d="M209.19,228.5c0,1.47-1.58,2.66-3.53,2.66H177.83c-2,0-3.53-1.19-3.53-2.66s1.58-2.67,3.53-2.67h27.83c2,0,3.53,1.2,3.53,2.67Z"/><path class="cls-15" d="M193.11,196.8h-3V100A37.83,37.83,0,0,0,179,73.16l-9.44-9.48,2.15-2.14L181.15,71a40.85,40.85,0,0,1,12,29Z"/><path class="cls-15" d="M193.11,196.8h-3V100a40.82,40.82,0,0,1,12-29l9.43-9.48,2.15,2.14-9.44,9.48A37.83,37.83,0,0,0,193.11,100Z"/><rect class="cls-15" x="160.57" y="48.26" width="10.42" height="19.21" rx="2.75" ry="2.75" transform="translate(7.63 134.17) rotate(-45)"/><path class="cls-16" d="M171,63.25l-2,2a1.93,1.93,0,0,1-2.64-.39l-7.59-7.59a1.93,1.93,0,0,1-.4-2.64l2-2A1.93,1.93,0,0,1,163,53l7.59,7.59A1.93,1.93,0,0,1,171,63.25Z"/><rect class="cls-15" x="207.08" y="52.66" width="19.21" height="10.42" rx="2.75" ry="2.75" transform="translate(22.55 170.17) rotate(-45)"/><path class="cls-16" d="M211.45,63.25l2,2a1.93,1.93,0,0,0,2.64-.39l7.59-7.59a1.93,1.93,0,0,0,.39-2.64l-2-2a1.93,1.93,0,0,0-2.64.39l-7.59,7.59A1.93,1.93,0,0,0,211.45,63.25Z"/><path class="cls-15" d="M197.4,223.8H185.79l1.83-40.56a2.43,2.43,0,0,1,2.43-2.33h3.09a2.43,2.43,0,0,1,2.43,2.33Z"/><path class="cls-15" d="M200.94,228H182.25v-1.79a2.42,2.42,0,0,1,2.42-2.42h13.85a2.42,2.42,0,0,1,2.42,2.42Z"/><rect class="cls-17" x="134.67" y="191.74" width="207.54" height="30.45"/><g class="cls-18"><rect x="134.67" y="191.74" width="207.54" height="30.45"/></g><circle class="cls-19" cx="162.56" cy="221.99" r="20.01" transform="translate(-14.53 11.41) rotate(-3.85)"/><path class="cls-19" d="M142.56,221.65s0,0,0,0a20,20,0,0,0,40,.58v-.05Z"/><path class="cls-20" d="M148.51,221.79a14.05,14.05,0,1,0,14.25-13.85A14.05,14.05,0,0,0,148.51,221.79Z"/><path class="cls-21" d="M162.76,207.94a14.06,14.06,0,0,0-14.25,13.85l28.1.4A14.05,14.05,0,0,0,162.76,207.94Z"/><path class="cls-19" d="M154,221.87a8.56,8.56,0,1,0,8.69-8.44A8.57,8.57,0,0,0,154,221.87Z"/><circle class="cls-19" cx="315.59" cy="221.99" r="20.01" transform="translate(-12.31 18.62) rotate(-3.32)"/><path class="cls-19" d="M295.59,221.65s0,0,0,0a20,20,0,0,0,40,.58v-.05Z"/><path class="cls-20" d="M301.55,221.79a14,14,0,1,0,14.25-13.85A14,14,0,0,0,301.55,221.79Z"/><path class="cls-21" d="M315.8,207.94a14.05,14.05,0,0,0-14.25,13.85l28.09.4A14,14,0,0,0,315.8,207.94Z"/><path class="cls-19" d="M307,221.87a8.56,8.56,0,1,0,8.68-8.44A8.56,8.56,0,0,0,307,221.87Z"/><path class="cls-17" d="M188.8,174.61s-29.47,2.17-40.4,4.62c-7.69,1.73-22.54,4.71-22.36,14.05l1.18,6.69a10.09,10.09,0,0,0-5.51,8.93c0,6.42-1.34,16.37,11.51,16.77,2.12.07,6.14,0,6.14,0S136.89,198.3,162,197.5c25.58-.82,23.88,27.92,23.88,27.92H292.69s-4.38-28,23.16-28S339.2,225.6,339.2,225.6s10.13.88,14.84-7.63,3.49-14.58,3.49-14.58l-.16-5.38a3.49,3.49,0,0,0-3.35-3.38h0s1.84-13.55-1-15.9-18.3-16.49-18.3-16.49l.74-.46a1.74,1.74,0,0,0-.36-3.11c-5.88-2-17.5-6-20.23-7a4.94,4.94,0,0,0-1.27-.26c-1.63-.13-6.24-.42-14.71-.51-10.32-.11-51.3,0-51.3,0s-14.1,1.16-22,4.62C217.39,159.17,188.8,174.61,188.8,174.61Z"/><g class="cls-22"><path d="M129.18,208.16c-1.07-.22-2.71-.24-3.52.49a3.35,3.35,0,0,0-.86,2.21,9.49,9.49,0,0,0,.08,3.32,4,4,0,0,0,1.87,2.64,2.59,2.59,0,0,0,3.07-.37,4,4,0,0,0,.76-2.87,23.15,23.15,0,0,0-.18-4.08,2.06,2.06,0,0,0-.36-.83,1.12,1.12,0,0,0-.86-.51"/></g><path class="cls-20" d="M127.22,200c3.13,0,6.16-.17,9.28-.38a1.47,1.47,0,0,0,.95-.29,1.5,1.5,0,0,0,.33-1.14c0-1.67-.07-3.58-1.34-4.67a5,5,0,0,0-2.86-1,18.48,18.48,0,0,0-7.54.76Z"/><path class="cls-23" d="M192.18,224.56l0-.26-.05-.79c0-.69-.09-1.71-.16-3s-.16-2.91-.35-4.77a37.72,37.72,0,0,0-1.1-6.22,28.18,28.18,0,0,0-3-7,22.09,22.09,0,0,0-5.82-6.5,33.82,33.82,0,0,0-19-5.7,30.73,30.73,0,0,0-18.86,5.94,27.42,27.42,0,0,0-6.13,6.25,29.7,29.7,0,0,0-3.59,6.74,27.64,27.64,0,0,0-1.51,6.12,25.23,25.23,0,0,0-.18,4.77,23.64,23.64,0,0,0,.36,3l.14.78c0,.17.05.26.05.26s0-.09-.07-.26l-.15-.77a21.92,21.92,0,0,1-.41-3,25,25,0,0,1,.15-4.78,27.45,27.45,0,0,1,1.5-6.16,29.35,29.35,0,0,1,3.58-6.79,27.91,27.91,0,0,1,6.15-6.3,31,31,0,0,1,19-6,34,34,0,0,1,19.11,5.76,22.23,22.23,0,0,1,5.85,6.55,28.11,28.11,0,0,1,3,7.07,37.91,37.91,0,0,1,1.08,6.24c.18,1.86.25,3.47.31,4.78s.1,2.32.13,3c0,.34,0,.6,0,.79S192.18,224.56,192.18,224.56Z"/><path class="cls-19" d="M193.31,225a2,2,0,0,1,0-.22l0-.67c0-.59,0-1.45-.08-2.58-.06-2.27-.15-5.59-.27-9.81s-.26-9.35-.42-15.23c0-1.47-.08-3-.12-4.54a14.68,14.68,0,0,1,.1-2.38c.05-.4.11-.8.17-1.2s.16-.81.25-1.21a23.68,23.68,0,0,1,1.66-4.79,24.09,24.09,0,0,1,2.74-4.56h0l18.49-11.65,5-3.14a39,39,0,0,1,5.29-3,57.66,57.66,0,0,1,5.74-2.29c1-.34,2-.62,3-.92s2-.55,3.07-.76a70.15,70.15,0,0,1,11.92-1.5,108.17,108.17,0,0,1,11.54,0h.11l0,.11-5,22.23h0a24.63,24.63,0,0,0-2.23,4.78,13,13,0,0,0-.75,4.94c.13,1.64.17,3.25.21,4.8s.06,3.08.09,4.55c.09,5.87.11,11,.13,15.21s0,7.54,0,9.8c0,1.13,0,2,0,2.59v.88a1.76,1.76,0,0,1,0-.22v-.66c0-.59,0-1.46,0-2.59,0-2.26,0-5.58-.06-9.8s-.07-9.34-.17-15.21c0-1.47-.06-3-.09-4.54s-.1-3.16-.23-4.8a13.41,13.41,0,0,1,.76-5,24.61,24.61,0,0,1,2.24-4.81v0c1.52-6.85,3.19-14.31,4.95-22.23l.08.11c-3.73-.2-7.59-.21-11.51,0a69.45,69.45,0,0,0-11.88,1.5c-1,.21-2.05.5-3.06.75s-2,.58-3,.93a52.81,52.81,0,0,0-5.72,2.28,40.05,40.05,0,0,0-5.26,2.93l-5,3.15L197.41,178l0,0a24.44,24.44,0,0,0-2.72,4.52,24.19,24.19,0,0,0-1.66,4.75c-.84,3.21-.42,6.37-.41,9.3.14,5.88.27,11,.37,15.23s.18,7.54.24,9.81c0,1.13,0,2,.05,2.58V225Z"/><path class="cls-19" d="M261.22,155.28h.18l.51,0,2-.05,7.36-.15,24.83-.42h.05l0,0,3.48,4.26,9.94,12.18,1.13,1.39a7.67,7.67,0,0,1,.92,1.49,7.73,7.73,0,0,1,.15,6.31l-1.14,2.64c-1.44,3.35-2.62,6.06-3.43,7.94-.41.93-.72,1.66-.94,2.16l-.25.56-.09.18.07-.19.23-.57.91-2.17c.8-1.89,2-4.61,3.38-8,.64-1.69,1.77-3.47,1.7-5.64a7.7,7.7,0,0,0-.74-3.18,7.83,7.83,0,0,0-.91-1.45l-1.14-1.39-9.94-12.17L296,154.79l.08,0-24.84.36-7.36.09h-2.68Z"/><path class="cls-19" d="M248.69,188.3s.1,0,.29-.05a2.07,2.07,0,0,0,.79-.31,2,2,0,0,0,.8-1,2.18,2.18,0,0,0,.1-.82,2,2,0,0,0-.23-.89,2,2,0,0,0-1.72-1.05h-8.3a1.94,1.94,0,0,0-1.32.52,2,2,0,0,0-.63,1.22,2.27,2.27,0,0,0,.24,1.32,2,2,0,0,0,1,.85,2.89,2.89,0,0,0,1.24.15h3.43l3.18,0,.86,0a1.92,1.92,0,0,1,.31,0l-.31,0-.86,0-3.18,0h-4.07a2.24,2.24,0,0,1-.67-.15,2.15,2.15,0,0,1-1-.93,2.35,2.35,0,0,1-.27-1.43,2.21,2.21,0,0,1,.69-1.35,2.17,2.17,0,0,1,1.45-.56h8.3a2.12,2.12,0,0,1,1.84,1.14,2.23,2.23,0,0,1,.24.95,2.44,2.44,0,0,1-.13.87,2.07,2.07,0,0,1-.86,1.07,1.93,1.93,0,0,1-.82.28A1,1,0,0,1,248.69,188.3Z"/><path class="cls-19" d="M304,188.3s.11,0,.3-.05a2.07,2.07,0,0,0,.79-.31,2,2,0,0,0,.8-1,2.4,2.4,0,0,0,.1-.82,2,2,0,0,0-.23-.89,2,2,0,0,0-1.73-1.05h-8.3a2,2,0,0,0-1.94,1.74,2.12,2.12,0,0,0,.24,1.32,1.93,1.93,0,0,0,1,.85,2.87,2.87,0,0,0,1.24.15h3.42l3.18,0,.87,0a1.71,1.71,0,0,1,.3,0l-.3,0-.87,0-3.18,0H295.6a2.18,2.18,0,0,1-.66-.15,2.11,2.11,0,0,1-1.05-.93,2.35,2.35,0,0,1-.27-1.43,2.13,2.13,0,0,1,2.13-1.91h8.31a2.12,2.12,0,0,1,1.84,1.14,2.08,2.08,0,0,1,.23.95,2.45,2.45,0,0,1-.12.87,2.12,2.12,0,0,1-.86,1.07,2,2,0,0,1-.83.28A1,1,0,0,1,304,188.3Z"/><path class="cls-20" d="M352.55,179.27H341.48a4.1,4.1,0,0,0-3.62,2.18h0a4.06,4.06,0,0,0-.12,3.55l4.34,9.86,11.09-.11S355.52,182.25,352.55,179.27Z"/><path class="cls-19" d="M198.77,177.87l57.13-1.05,37.19-.68,12.26-7.08a1.91,1.91,0,0,0,.56-2.8l-7.63-10a4.23,4.23,0,0,0-3.35-1.67l-41.58-.34s-15.67-.91-28,6A264.14,264.14,0,0,0,198.77,177.87Z"/><path class="cls-24" d="M225,155.25s2.87,1.31,1,2.52-30.8,19.46-30.8,19.46l-6.66-3C200.28,167.65,212.18,161.27,225,155.25Z"/><path class="cls-19" d="M196.08,177.68l-.18,0-.52.11-2,.42c-1.76.36-4.32.85-7.49,1.39-6.35,1.1-15.16,2.37-24.95,3.22-2.45.21-4.84.38-7.15.54s-4.54.29-6.66.48a58,58,0,0,0-11.11,1.9,31.19,31.19,0,0,0-7,2.93c-.8.42-1.36.83-1.77,1.08l-.45.28-.16.1.15-.11.44-.31c.4-.26,1-.68,1.75-1.11a30.87,30.87,0,0,1,7-3,56.62,56.62,0,0,1,11.13-1.95c2.12-.2,4.35-.34,6.66-.5s4.71-.33,7.15-.54c9.79-.84,18.6-2.1,24.94-3.15,3.18-.53,5.74-1,7.51-1.33l2-.38.53-.1Z"/><path class="cls-19" d="M357,203.27s-3.81.1-8.5.1-8.51-.05-8.51-.1,3.81-.1,8.51-.1S357,203.21,357,203.27Z"/><path class="cls-19" d="M287.31,213s-21.49.09-48,.09-48,0-48-.09,21.49-.1,48-.1S287.31,212.93,287.31,213Z"/><path class="cls-19" d="M136.81,203.59s-3,.1-6.79.1-6.79-.05-6.79-.1,3-.1,6.79-.1S136.81,203.54,136.81,203.59Z"/><path class="cls-24" d="M334.44,161.85s-2.56,2.85-1.55,5,11.36,9.43,11.36,9.43l7.53,1.41Z"/><polygon class="cls-24" points="262.91 156.74 261.22 175 291.49 174.14 303.69 167.05 295.79 156.74 262.91 156.74"/><path class="cls-24" d="M205.94,175.94s18.26-13.19,25.46-15.81a46.12,46.12,0,0,1,17.11-3.35c6.25-.18,10.05,0,10.05,0l-4.82,18.58Z"/><path class="cls-17" d="M203.27,176h0a3.19,3.19,0,0,1,1.63-2.79l4.19-2.36a8,8,0,0,1,3.92-1h0a8.06,8.06,0,0,1,2.49.4,4.54,4.54,0,0,1,3.06,4.17h0a4.63,4.63,0,0,1-4.62,4.8h-7.47A3.2,3.2,0,0,1,203.27,176Z"/><path class="cls-19" d="M203.27,176s0,.14,0,.41a3.21,3.21,0,0,0,1.66,2.36,3.26,3.26,0,0,0,1.08.34c.39,0,.83,0,1.29,0l6.4,0a5,5,0,0,0,1.78-.29,4.6,4.6,0,0,0,2.65-2.63,4.72,4.72,0,0,0,.28-2,4.55,4.55,0,0,0-1.89-3.35,5.07,5.07,0,0,0-1.73-.73,8.14,8.14,0,0,0-1.82-.21,8,8,0,0,0-3.28.7c-.48.22-.92.49-1.36.73l-1.25.69L205,173.23a3.21,3.21,0,0,0-1.66,2.36c0,.27,0,.41,0,.41a2.12,2.12,0,0,1,0-.41,3.21,3.21,0,0,1,1.65-2.45l2.13-1.22,1.25-.7c.43-.24.87-.52,1.36-.74a7.92,7.92,0,0,1,3.35-.74,8.49,8.49,0,0,1,1.86.21,5,5,0,0,1,1.8.76,4.73,4.73,0,0,1,2,3.49,4.8,4.8,0,0,1-.29,2.06,4.63,4.63,0,0,1-1.12,1.69,4.57,4.57,0,0,1-1.65,1,4.93,4.93,0,0,1-1.84.3l-6.4,0c-.46,0-.89,0-1.31,0a3.24,3.24,0,0,1-2.41-1.69,2.94,2.94,0,0,1-.34-1.13A1.82,1.82,0,0,1,203.27,176Z"/><path class="cls-23" d="M344,224.73s0-.08,0-.25l0-.76c0-.34.06-.75.08-1.24s0-1,.06-1.69,0-1.34,0-2.11,0-1.61-.16-2.51a32.35,32.35,0,0,0-1.08-6,27,27,0,0,0-1.19-3.35,22.39,22.39,0,0,0-1.81-3.4,23.07,23.07,0,0,0-5.84-6.11,27.85,27.85,0,0,0-8.39-4.13,34.75,34.75,0,0,0-10-1.33,32.66,32.66,0,0,0-10,1.45,28.43,28.43,0,0,0-4.43,1.83,24.9,24.9,0,0,0-3.84,2.51,31.61,31.61,0,0,0-5.92,6.07,22.35,22.35,0,0,0-2,3.31,32,32,0,0,0-1.37,3.29,38.86,38.86,0,0,0-2.15,10.49c-.06,1.27-.06,2.26,0,2.93l0,.76c0,.17,0,.25,0,.25a1.53,1.53,0,0,1,0-.25l-.07-.76c0-.67-.06-1.66,0-2.93a38.86,38.86,0,0,1,2.1-10.54,35.65,35.65,0,0,1,1.36-3.31,24,24,0,0,1,2-3.33,32,32,0,0,1,5.95-6.12,25.34,25.34,0,0,1,3.87-2.54,27.11,27.11,0,0,1,4.46-1.84,32.94,32.94,0,0,1,10-1.47,35.45,35.45,0,0,1,10,1.34,27.88,27.88,0,0,1,8.44,4.18,25.17,25.17,0,0,1,3.31,2.9,20,20,0,0,1,2.57,3.26,22.66,22.66,0,0,1,1.81,3.43,27.73,27.73,0,0,1,1.18,3.37,31.67,31.67,0,0,1,1.06,6c.1.9.1,1.75.14,2.52s0,1.48,0,2.12-.06,1.19-.08,1.68-.07.91-.1,1.24-.05.58-.07.76Z"/><path class="cls-23" d="M252.94,177.87h-.34l-1,0L248,178c-3,.06-7.21.17-11.83.29s-8.81.22-11.84.24c-1.52,0-2.74,0-3.59,0h-1l1,0,3.59-.07c3-.05,7.21-.17,11.83-.29s8.81-.22,11.84-.24h4.91Z"/><path class="cls-23" d="M248,183.5a53.84,53.84,0,0,1-6.56,0,53.84,53.84,0,0,1,6.56,0Z"/><path class="cls-23" d="M249.18,163.48c0,.05-4.05,1.74-9.09,3.78s-9.14,3.66-9.16,3.61,4-1.75,9.09-3.79S249.16,163.43,249.18,163.48Z"/><path class="cls-23" d="M240.94,164.76c0,.05-3.86,1.75-8.65,3.81s-8.71,3.68-8.73,3.63,3.85-1.75,8.65-3.81S240.92,164.71,240.94,164.76Z"/><path class="cls-23" d="M293.22,162.77s-4.05,1.75-9.09,3.79-9.14,3.65-9.16,3.6,4-1.75,9.09-3.79S293.2,162.72,293.22,162.77Z"/><path class="cls-23" d="M285,164.05s-3.85,1.76-8.65,3.81-8.71,3.68-8.73,3.63,3.85-1.75,8.66-3.81S285,164,285,164.05Z"/><path class="cls-23" d="M294,177.87s-8.09.15-18.07.21-18.07.06-18.07,0,8.09-.15,18.07-.21S294,177.82,294,177.87Z"/><path class="cls-23" d="M303,183.19c0,.05-2.27.11-5.07.14s-5.07,0-5.07-.05,2.27-.12,5.07-.14S303,183.13,303,183.19Z"/><path class="cls-23" d="M148.05,180.42a.74.74,0,0,1-.22,0l-.63.09c-.28,0-.62.07-1,.13s-.84.12-1.32.22c-1,.17-2.14.42-3.4.76a42.46,42.46,0,0,0-4,1.34c-1.4.56-2.71,1.17-3.87,1.77s-2.18,1.21-3,1.75c-.43.26-.79.52-1.12.74s-.6.41-.83.58l-.52.37-.19.12a1.07,1.07,0,0,1,.17-.15l.5-.4c.22-.18.49-.39.81-.61s.68-.5,1.1-.77c.83-.55,1.85-1.16,3-1.79a41.91,41.91,0,0,1,3.89-1.79,39.91,39.91,0,0,1,4.07-1.33c1.28-.33,2.44-.57,3.42-.73.49-.09.94-.13,1.33-.19s.73-.08,1-.1l.64-.05Z"/><path class="cls-23" d="M214.85,171.59s-.11-.14-.36-.34a2.48,2.48,0,0,0-1.24-.5,5.36,5.36,0,0,0-2,.21,16,16,0,0,0-2.36.8,15.28,15.28,0,0,0-3.83,2.39c-.89.74-1.36,1.29-1.38,1.27a2.45,2.45,0,0,1,.31-.4c.22-.24.55-.59,1-1a14.22,14.22,0,0,1,3.85-2.45,14,14,0,0,1,2.39-.8,5.16,5.16,0,0,1,2.05-.18,2.35,2.35,0,0,1,1.27.58,1.44,1.44,0,0,1,.25.29C214.84,171.55,214.86,171.59,214.85,171.59Z"/><path class="cls-19" d="M335.28,161.72a6.28,6.28,0,0,1-1.59.16,9.46,9.46,0,0,1-1.87-.23,17.12,17.12,0,0,1-2.38-.74c-.86-.32-1.78-.74-2.78-1.16l-1.55-.63c-.54-.21-1.1-.39-1.67-.6a65.29,65.29,0,0,0-7.62-2.08,87.73,87.73,0,0,0-14.25-1.77c-.92,0-1.75,0-2.48-.08h-1.88l-1.18,0h-.42l.11,0,.31,0,1.18-.06,1.88,0c.73,0,1.56,0,2.48,0a83.12,83.12,0,0,1,14.29,1.72,63.13,63.13,0,0,1,7.64,2.1c.57.21,1.14.4,1.67.61l1.56.64c1,.43,1.91.85,2.76,1.18a16.31,16.31,0,0,0,2.36.76,9.5,9.5,0,0,0,1.84.26,7.83,7.83,0,0,0,1.18,0l.31,0Z"/></g></g></g></svg>