<svg xmlns="http://www.w3.org/2000/svg" viewBox="0 0 452.28 338.74"><defs><style>.cls-1{isolation:isolate;}.cls-2,.cls-23,.cls-3{fill:#fff;}.cls-2{opacity:0.47;}.cls-3{opacity:0.43;}.cls-4{fill:#ffae80;}.cls-5{fill:#ea4a49;}.cls-6{fill:#212121;}.cls-7{fill:#1d1715;}.cls-8{fill:#16191e;}.cls-9{fill:#5e4a4c;}.cls-10{fill:#1d1d1b;}.cls-10,.cls-13{opacity:0.3;}.cls-11{fill:#ebb677;}.cls-12{fill:#c21e1d;}.cls-13{fill:#456f96;mix-blend-mode:multiply;}.cls-14{fill:#eadff8;}.cls-15{fill:#3c3c3b;}.cls-16{fill:#fff5c4;}.cls-17{fill:#ff4f5b;}.cls-18{opacity:0.5;}.cls-19{fill:#1a2e35;}.cls-20{fill:#fafafa;}.cls-21{fill:#e1e1e1;}.cls-22{opacity:0.4;}.cls-24{fill:#375a64;}</style></defs><title>login-customer</title><g class="cls-1"><g id="Layer_2" data-name="Layer 2"><g id="Layer_1-2" data-name="Layer 1"><ellipse class="cls-2" cx="170.36" cy="181.14" rx="170.36" ry="140.06"/><ellipse class="cls-3" cx="304.08" cy="121.84" rx="148.2" ry="121.84"/><path class="cls-4" d="M122.65,167.85l.55-.5,1-.62,2.53-.17a.7.7,0,0,0,.68-.56l.83-.06a.72.72,0,0,0,.68-.89,1,1,0,0,0-.14-.33.82.82,0,0,0,.13-.82,1.12,1.12,0,0,0-1.23-.72l-3.49.76-.12,0a.2.2,0,0,0-.08,0l-.07,0-.08.05-2.55,2.29a.89.89,0,0,0,0,1.28A1,1,0,0,0,122.65,167.85Z"/><path class="cls-4" d="M119.77,176.41l1.56-1.5a3.81,3.81,0,0,0,.86-1.27l.52-1.27A1.17,1.17,0,0,1,123,172l2.13-2.22a.89.89,0,0,0-.13-1.29,1,1,0,0,0-1.35-.06l-1.44,1.49.52-2.09,1.85-2.55,3-1.32a.82.82,0,0,0,.33-1.2,1.07,1.07,0,0,0-1.31-.49l-3.51,1.66s-1.9,1.74-2.44,2.34c-.1.11-.2.29-.33.47a17,17,0,0,0-2.41,4.87l-1.21,2.56Z"/><path class="cls-5" d="M90.43,209.55a30.15,30.15,0,0,1,4.53-5l.45-.46c2.35-2.45,7.53-7.47,7.53-7.47s10.37-17.48,14.36-24.81L122,180c-3.15,6.67-8.34,19.36-10.4,22-3.86,5-8.25,10-12.45,15a9.53,9.53,0,0,1-5,3,3.87,3.87,0,0,1-1.43.05,4.23,4.23,0,0,1-3.21-3.43A9,9,0,0,1,90.43,209.55Z"/><path class="cls-4" d="M147.82,254a4.18,4.18,0,0,1,.16,2.14,15.12,15.12,0,0,1-1.27,4.33c-.73,1.75-4.74-.43-4.83-.8a.94.94,0,0,1,.31-1c.71-.5,1.88.4,2.5-.21a1.28,1.28,0,0,0,.29-.82,2,2,0,0,0-.81-2.05,3.4,3.4,0,0,0-1.59-.06,4.68,4.68,0,0,1-3.88-2.49c-.5-1.29.56-2.52,1.63-3.4a2.1,2.1,0,0,1,1.73-.53A36.8,36.8,0,0,1,147.82,254Z"/><path class="cls-6" d="M94.8,337a4.15,4.15,0,0,0,0,.49H106v-.19a1.11,1.11,0,0,0,0-.17.62.62,0,0,0,0-.13,7.19,7.19,0,0,0-.31-1.5,3.54,3.54,0,0,0-3.34-2.49c-.54-.06-1.12-.08-1.72-.09h-.45c-2.65,0-4.85.26-5.26,3A6.32,6.32,0,0,0,94.8,337Z"/><polygon class="cls-7" points="94.79 336.99 94.83 337.48 94.9 338.74 106.09 338.74 106.01 337.48 106 337.29 106 337.1 105.99 336.99 94.79 336.99"/><path class="cls-7" d="M118.58,336.37c0,.19,0,.4,0,.62l0,.49H136.8a3,3,0,0,0-.07-.49c-.51-2.59-3.77-3.93-7.45-4.47a29.38,29.38,0,0,0-8.06,0,13.85,13.85,0,0,0-2,.41C118.92,333,118.45,333.21,118.58,336.37Z"/><path class="cls-8" d="M118.63,337l0,.49.08,1.26h18.14l-.07-1.26c0-.05,0-.49,0-.49Z"/><path class="cls-9" d="M94,334.86c0,.46.36.79.94,1a13.19,13.19,0,0,0,4.37.39l1-.06a49.67,49.67,0,0,0,5.38-.74c.51-.1,1-.17,1.36-.27l.94-27.33,0-1.09.44-12.47,3.61-24v-.52l3.9,23.84.06.4c0,5.74-.24,11.94-.29,18-.1,9.48.16,18.54,2.1,24.71a.93.93,0,0,1,.31-.13,2.31,2.31,0,0,1,.47-.24c.84-.31,1.82-.6,2.89-.89,2.61-.71,5.67-1.44,7.8-2.9v-.06l-1.11-37.7L127,274l-.18-3-.37-6.41,0-.22-.22-4-.3-5.17-.14-2.49,0-1-.1-1.66-.1-1.68s-.1-2-.1-2H94.82c-.06.74-.11,1.46-.13,2.2,0,.49,0,1,0,1.49a51.16,51.16,0,0,0,.23,5.31c0,.29.06.6.1.87a48.48,48.48,0,0,0,.88,5.15c.12.51.25,1,.38,1.49.19.77.39,1.54.64,2.28,0,.56-.06,1.12-.08,1.7s0,1.44-.08,2.16L96.56,272c0,1-.09,1.93-.13,2.88-.32,6.33-.6,12.39-.55,17,0,.47,0,.92,0,1.36,0,1.72-.1,4.48-.35,7.8C94.76,312.16,93,329.39,94,334.86Z"/><path class="cls-10" d="M95,256.22a46.28,46.28,0,0,0,.89,5.14c.11.5.23,1,.36,1.49.19.77.41,1.53.65,2.28,0,1.28-.11,2.56-.17,3.87l-.15,3.05c0,1-.1,1.91-.14,2.87,3-.23,6.57-.18,10.32-.1,1.37,2.72,1.2,6.12.9,9.24a13.76,13.76,0,0,1-.76,3.92,4.9,4.9,0,0,1-2.63,2.88,8.46,8.46,0,0,1,2.41,4.62,37.15,37.15,0,0,1,.49,5.28c.14,2.39.46,4.76.81,7.12l0-1.09.43-12.47,3.62-24v-.52l3.88,23.84.07.4c0,5.74-.23,11.95-.29,18,0,.11,0,.22,0,.33q.33-3.47.49-6.93a13.8,13.8,0,0,1,.39-3.2c.2-.69.51-1.33.74-2,.81-2.39.58-5.1,1.82-7.31a1.73,1.73,0,0,0,.26-.61,1.59,1.59,0,0,0-.15-.74A38.67,38.67,0,0,1,117.19,275,45.49,45.49,0,0,0,127,274l-.17-3-.38-6.62-.23-4-.3-5.17c-5.5-.08-11,.75-16.5,1C104.6,256.38,99.78,256.17,95,256.22Z"/><polygon class="cls-11" points="107.55 200.06 110.55 199.6 111 202.47 107.7 202.38 107.55 200.06"/><path class="cls-4" d="M98.57,202.62,98,193c4.11-.14,9.61-.43,10.56-.65,0,0,.43,7,.88,10C111.31,210,102.31,211.06,98.57,202.62Z"/><path class="cls-4" d="M96.77,194.79a11.07,11.07,0,0,1-1.51-4.59c-1.1-9.32,4.41-8.82,7.85-9.34,4-.43,8.25,1.72,9.39,7.85a9.63,9.63,0,0,1-.28,1.17l1.84,3.25a1,1,0,0,1-.51,1.44l-.85.37c.07.63.55,3.28.55,3.28.18,1.58-.13,4.13-2.25,4.25-.87-.13-3-1.54-4.06-7.08C105.45,195.44,97.53,196.08,96.77,194.79Z"/><path d="M98.43,198.82c11.06,1.26,8.15-3.78,8.26-4.92,0-.34,1.76-.29,1.75-.62-.15-5.69-2.42-9.13,2.21-9.16,1.67-.56,1.82-6.11-8.63-4.23-4.62.83-7.85,3.92-8,8.61S96.5,198.21,98.43,198.82Z"/><path class="cls-4" d="M104.35,193.2c.22,1.45,1.41,3,2.13,2.87s.59-1.34.38-2.79c-.14-1-.3-2.29-1.14-2.47S104,191.07,104.35,193.2Z"/><path class="cls-5" d="M89,213.54a4.58,4.58,0,0,0,0,.64v.07l.59,7.11,0,.24s2.67,25.33,1.75,41.38a3.76,3.76,0,0,0,4.21,4c.39,0,.81-.09,1.24-.12a89.68,89.68,0,0,1,15.52.79c1.68.2,3.37.43,5,.66A6.86,6.86,0,0,0,125.2,262v-.06c0-.13,0-.25,0-.38a81.5,81.5,0,0,0,.48-8.91v-.95c0-.83,0-1.66,0-2.51s-.07-1.91-.12-2.85c0-.69-.07-1.38-.11-2.06-.06-.83-.12-1.64-.18-2.45,0-.36,0-.72-.1-1.1s-.07-.89-.11-1.34-.08-.8-.12-1.2-.09-.8-.13-1.2c0,0,0-.11,0-.15,0-.36-.08-.69-.12-1s-.09-.8-.13-1.19c-.25-2-.51-4.07-.8-6-.31-2.17-.63-4.24-1-6.14-.17-1-.34-1.95-.5-2.86-.31-1.64-.58-3.1-.84-4.36s-.47-2.3-.65-3.1c-.23-1.14-.39-1.79-.39-1.79-1.09-2-.74-3.46-2.83-4.55l-.18-.07-.92-.3a.2.2,0,0,0-.11,0c-2.14-.7-6.36-2-6.36-2h-.2l-.11,0-10.34.67-1.91.13-4.64,2.67A7.7,7.7,0,0,0,89,213.54Z"/><path class="cls-12" d="M108.36,201.69A32.81,32.81,0,0,0,98.2,202l-.77,2.23c.74,1.26,7.4,1.23,12.58-.81l-.22-.57A1.91,1.91,0,0,0,108.36,201.69Z"/><path class="cls-13" d="M115.06,215.41c1.47,10.33,3,20.8,5.48,30.93a124.47,124.47,0,0,0,4.7,15.21c.38,1,.79,2,1.21,3l0-.22-.22-4-.3-5.17-.14-2.49,0-1c0-.83,0-1.66,0-2.51s-.07-1.91-.12-2.85c0-.69-.07-1.38-.11-2.06-.06-.83-.12-1.64-.18-2.45,0-.36,0-.72-.1-1.1s-.07-.89-.11-1.34-.08-.8-.12-1.2-.09-.8-.13-1.2c0,0,0-.11,0-.15C120.45,230.4,118.53,222.46,115.06,215.41Z"/><path class="cls-5" d="M111.89,206.56a4.17,4.17,0,0,0-.62,1.33,9.72,9.72,0,0,0,.41,5.73l0,.08c.69,1.6,1.39,3.2,2.07,4.8l1.27,3c.63,1.46,1.25,2.9,1.89,4.34q1.26,2.88,2.61,5.65c1,2,5.53,7.24,9.89,12.29.3.37.61.73.92,1.09,2,2.36,5.27,6.85,6.67,8.62l7.25-4.55c-4.76-6.83-16.07-22.81-16.07-22.81s-2.16-6.85-3.31-10c-.07-.2-.15-.4-.21-.6-.55-1.64-1-3.17-1.58-4.62a11.62,11.62,0,0,0-.85-1.64.64.64,0,0,0-.11-.17,7.22,7.22,0,0,0-.56-.77l-.08-.09a9.23,9.23,0,0,0-5.14-2.95A4.25,4.25,0,0,0,111.89,206.56Z"/><path class="cls-13" d="M105.71,243.53c-1.06-5.16-3.22-10-4.46-15.14s-1.5-10.79,1.08-15.39c-.71,6.2,1.75,12.25,3.25,18.31a60.29,60.29,0,0,1,1.24,22.19A74,74,0,0,0,105.71,243.53Z"/><path class="cls-14" d="M218.56,245.61c0,1.47-1.59,2.66-3.54,2.66H187.19c-1.95,0-3.53-1.19-3.53-2.66s1.58-2.67,3.53-2.67H215c1.95,0,3.54,1.2,3.54,2.67Z"/><path class="cls-15" d="M202.47,213.91h-3v-96.8a37.79,37.79,0,0,0-11.08-26.84l-9.44-9.48,2.15-2.14,9.44,9.48a40.83,40.83,0,0,1,12,29Z"/><path class="cls-15" d="M202.47,213.91h-3v-96.8a40.8,40.8,0,0,1,12-29l9.44-9.48L223,80.79l-9.44,9.48a37.83,37.83,0,0,0-11.08,26.84Z"/><rect class="cls-15" x="169.93" y="65.37" width="10.42" height="19.21" rx="2.75" ry="2.75" transform="translate(-1.72 145.8) rotate(-45)"/><path class="cls-16" d="M180.38,80.36l-2,2a1.93,1.93,0,0,1-2.64-.39l-7.59-7.59a1.93,1.93,0,0,1-.4-2.64l2-2a1.93,1.93,0,0,1,2.64.39L180,77.72A1.93,1.93,0,0,1,180.38,80.36Z"/><rect class="cls-15" x="216.44" y="69.76" width="19.21" height="10.42" rx="2.75" ry="2.75" transform="translate(13.19 181.8) rotate(-45)"/><path class="cls-16" d="M220.81,80.36l2,2a1.93,1.93,0,0,0,2.64-.39l7.59-7.59a1.93,1.93,0,0,0,.39-2.64l-2-2a1.94,1.94,0,0,0-2.65.39l-7.59,7.59A1.94,1.94,0,0,0,220.81,80.36Z"/><path class="cls-15" d="M206.77,240.91H195.15L197,200.35a2.43,2.43,0,0,1,2.44-2.33h3.08a2.43,2.43,0,0,1,2.43,2.33Z"/><path class="cls-15" d="M210.3,245.12H191.61v-1.79a2.43,2.43,0,0,1,2.42-2.42h13.85a2.42,2.42,0,0,1,2.42,2.42Z"/><rect class="cls-17" x="145.59" y="207.37" width="247.47" height="36.31"/><g class="cls-18"><rect x="145.59" y="207.37" width="247.47" height="36.31"/></g><circle class="cls-19" cx="178.84" cy="243.43" r="23.86" transform="translate(-15.94 12.55) rotate(-3.85)"/><path class="cls-19" d="M155,243s0,0,0,.06a23.86,23.86,0,0,0,47.72.69v-.06Z"/><path class="cls-20" d="M162.09,243.19a16.75,16.75,0,1,0,17-16.51A16.77,16.77,0,0,0,162.09,243.19Z"/><path class="cls-21" d="M179.08,226.68a16.75,16.75,0,0,0-17,16.51l33.5.49A16.75,16.75,0,0,0,179.08,226.68Z"/><path class="cls-19" d="M168.64,243.29A10.21,10.21,0,1,0,179,233.23,10.21,10.21,0,0,0,168.64,243.29Z"/><circle class="cls-19" cx="361.32" cy="243.43" r="23.86" transform="translate(-13.47 21.3) rotate(-3.32)"/><path class="cls-19" d="M337.46,243v.06a23.86,23.86,0,0,0,47.72.69s0,0,0-.06Z"/><path class="cls-20" d="M344.56,243.19a16.76,16.76,0,1,0,17-16.51A16.77,16.77,0,0,0,344.56,243.19Z"/><path class="cls-21" d="M361.56,226.68a16.77,16.77,0,0,0-17,16.51l33.51.49A16.76,16.76,0,0,0,361.56,226.68Z"/><path class="cls-19" d="M351.11,243.29a10.21,10.21,0,1,0,10.35-10.06A10.21,10.21,0,0,0,351.11,243.29Z"/><path class="cls-17" d="M210.12,186.94S175,189.53,162,192.45c-9.18,2.06-26.88,5.61-26.67,16.75l1.41,8a12,12,0,0,0-6.57,10.65c0,7.65-1.6,19.52,13.72,20,2.53.08,7.32,0,7.32,0s-2.94-32.63,27.05-33.59c30.5-1,28.48,33.3,28.48,33.3H334s-5.23-33.39,27.61-33.44,27.84,33.65,27.84,33.65,12.08,1,17.7-9.1,4.16-17.38,4.16-17.38l-.19-6.42a4.15,4.15,0,0,0-4-4h0s2.19-16.16-1.17-18.95-21.82-19.67-21.82-19.67l.87-.55a2.07,2.07,0,0,0-.42-3.71c-7-2.41-20.86-7.18-24.12-8.32a6,6,0,0,0-1.51-.32c-2-.15-7.45-.49-17.55-.6-12.31-.13-61.17,0-61.17,0s-16.81,1.38-26.18,5.5C244.22,168.53,210.12,186.94,210.12,186.94Z"/><g class="cls-22"><path d="M139,226.94c-1.28-.25-3.23-.28-4.2.58a4,4,0,0,0-1,2.64,11.44,11.44,0,0,0,.08,4,4.85,4.85,0,0,0,2.23,3.15,3.1,3.1,0,0,0,3.67-.44,4.77,4.77,0,0,0,.91-3.42,29.27,29.27,0,0,0-.21-4.87,2.36,2.36,0,0,0-.44-1,1.36,1.36,0,0,0-1-.62"/></g><path class="cls-20" d="M136.7,217.18c3.73,0,7.35-.21,11.07-.46a1.71,1.71,0,0,0,1.13-.34,1.78,1.78,0,0,0,.39-1.36c0-2-.08-4.27-1.6-5.57a6,6,0,0,0-3.41-1.16,22,22,0,0,0-9,.91Z"/><path class="cls-23" d="M214.16,246.5a2.35,2.35,0,0,1,0-.31l-.07-.94c0-.83-.11-2-.19-3.6s-.19-3.48-.42-5.69a45.2,45.2,0,0,0-1.31-7.41,33.63,33.63,0,0,0-3.6-8.37,26.18,26.18,0,0,0-6.94-7.74c-6-4.28-14.15-6.7-22.65-6.81a36.75,36.75,0,0,0-22.5,7.08,33,33,0,0,0-7.3,7.46,34.77,34.77,0,0,0-4.28,8,32.41,32.41,0,0,0-1.8,7.3,30.18,30.18,0,0,0-.22,5.68,27.62,27.62,0,0,0,.44,3.57c.07.4.12.71.16.92s.05.32.05.32,0-.11-.07-.31l-.19-.92a26.29,26.29,0,0,1-.48-3.57,30.1,30.1,0,0,1,.18-5.71,32.3,32.3,0,0,1,1.78-7.34,35.07,35.07,0,0,1,4.27-8.1,33.31,33.31,0,0,1,7.33-7.51A36.9,36.9,0,0,1,179,205.4c8.55.1,16.72,2.54,22.78,6.86a26.58,26.58,0,0,1,7,7.82,34,34,0,0,1,3.59,8.42,45.5,45.5,0,0,1,1.28,7.45c.21,2.22.3,4.13.38,5.69s.12,2.78.15,3.61c0,.4,0,.72,0,.93S214.16,246.5,214.16,246.5Z"/><path class="cls-19" d="M215.51,247.06s0-.09,0-.27l0-.79c0-.7-.05-1.74-.09-3.08-.08-2.71-.19-6.67-.34-11.7s-.3-11.15-.49-18.15c0-1.76-.1-3.56-.15-5.42a19.46,19.46,0,0,1,.12-2.84l.21-1.43c.09-.48.19-1,.29-1.44a29.23,29.23,0,0,1,2-5.72,28.57,28.57,0,0,1,3.26-5.42v0h0l22.05-13.88c1.95-1.24,3.94-2.49,5.95-3.75a46.48,46.48,0,0,1,6.3-3.52,64.33,64.33,0,0,1,6.85-2.74c1.17-.41,2.37-.74,3.57-1.1s2.42-.65,3.66-.9a82.81,82.81,0,0,1,14.21-1.79,134,134,0,0,1,13.75,0h.13l0,.13c-2.11,9.44-4.1,18.34-5.92,26.5v0h0a28.29,28.29,0,0,0-2.66,5.7,15.66,15.66,0,0,0-.9,5.89c.15,2,.2,3.87.26,5.73s.07,3.66.1,5.41c.1,7,.13,13.12.15,18.15s0,9,0,11.69c0,1.34,0,2.37,0,3.08,0,.34,0,.61,0,.79v.26s0-.09,0-.26,0-.45,0-.79c0-.71,0-1.74,0-3.08,0-2.71,0-6.66-.07-11.69s-.08-11.14-.19-18.14c0-1.75-.08-3.56-.12-5.42s-.11-3.76-.27-5.72a16.07,16.07,0,0,1,.9-6,29,29,0,0,1,2.68-5.74l0,0c1.82-8.16,3.8-17.07,5.91-26.51l.1.14a133.6,133.6,0,0,0-13.73,0,83.36,83.36,0,0,0-14.17,1.79c-1.24.24-2.44.59-3.65.89s-2.39.7-3.56,1.1a64.63,64.63,0,0,0-6.82,2.73,46,46,0,0,0-6.27,3.5l-6,3.74L220.4,191l0,0a28.51,28.51,0,0,0-3.25,5.39,29.42,29.42,0,0,0-2,5.67c-1,3.82-.49,7.59-.49,11.09.18,7,.33,13.11.45,18.15s.22,9,.28,11.7c0,1.34,0,2.38.06,3.08l0,.79Z"/><path class="cls-19" d="M296.48,163.89l.21,0,.61,0,2.37-.06,8.78-.17,29.61-.5h.06l0,0c1.32,1.63,2.72,3.34,4.14,5.08l11.85,14.52,1.35,1.66a9.44,9.44,0,0,1,1.11,1.78,9.26,9.26,0,0,1,.88,3.88,9,9,0,0,1-.72,3.65c-.46,1.09-.91,2.14-1.35,3.14l-4.09,9.47-1.12,2.57-.3.67-.11.22.09-.23c.06-.16.16-.39.27-.68.26-.6.62-1.47,1.09-2.59.95-2.25,2.33-5.49,4-9.5.77-2,2.12-4.13,2-6.72a9.06,9.06,0,0,0-.88-3.8,8.52,8.52,0,0,0-1.09-1.73c-.44-.54-.89-1.1-1.35-1.65l-11.86-14.52L338,163.3l.09,0-29.61.42-8.79.11h-3.19Z"/><path class="cls-19" d="M281.53,203.26l.36,0a2.45,2.45,0,0,0,1.89-1.62,2.57,2.57,0,0,0,.12-1,2.42,2.42,0,0,0-.27-1.06,2.38,2.38,0,0,0-2.06-1.25h-9.9a2.32,2.32,0,0,0-2.31,2.07,2.61,2.61,0,0,0,.28,1.57,2.39,2.39,0,0,0,1.14,1,3.56,3.56,0,0,0,1.49.18h1.46l2.62,0,3.79,0,1,0a1.41,1.41,0,0,1,.36,0,1.41,1.41,0,0,1-.36,0l-1,0-3.79,0-2.62,0H271.5a2.81,2.81,0,0,1-.8-.18,2.59,2.59,0,0,1-1.25-1.11,2.79,2.79,0,0,1-.32-1.71,2.54,2.54,0,0,1,.82-1.6,2.51,2.51,0,0,1,1.72-.67h6.9l3,0a2.51,2.51,0,0,1,2.47,2.5,2.68,2.68,0,0,1-.15,1,2.49,2.49,0,0,1-1,1.27,2.28,2.28,0,0,1-1,.34A1.49,1.49,0,0,1,281.53,203.26Z"/><path class="cls-19" d="M347.52,203.26l.35,0a2.38,2.38,0,0,0,.94-.38,2.31,2.31,0,0,0,.95-1.24,2.56,2.56,0,0,0,.13-1,2.43,2.43,0,0,0-.28-1.06,2.38,2.38,0,0,0-2.06-1.25h-9.89a2.29,2.29,0,0,0-1.57.61,2.33,2.33,0,0,0-.75,1.46,2.61,2.61,0,0,0,.28,1.57,2.37,2.37,0,0,0,1.15,1,3.51,3.51,0,0,0,1.48.18h1.46l2.62,0,3.8,0,1,0a1.48,1.48,0,0,1,.36,0,1.48,1.48,0,0,1-.36,0l-1,0-3.8,0-2.62,0h-2.23a2.81,2.81,0,0,1-.8-.18,2.68,2.68,0,0,1-1.25-1.11,2.87,2.87,0,0,1-.32-1.71,2.59,2.59,0,0,1,.82-1.6,2.53,2.53,0,0,1,1.73-.67h6.89l3,0a2.51,2.51,0,0,1,2.47,2.5,2.89,2.89,0,0,1-.14,1,2.5,2.5,0,0,1-1,1.27,2.28,2.28,0,0,1-1,.34A1.39,1.39,0,0,1,347.52,203.26Z"/><path class="cls-20" d="M405.38,192.49h-13.2a4.9,4.9,0,0,0-4.32,2.61h0a4.87,4.87,0,0,0-.14,4.23l5.18,11.76,13.22-.13S408.93,196.05,405.38,192.49Z"/><path class="cls-19" d="M222,190.83l68.12-1.26,44.34-.81,14.62-8.44a2.27,2.27,0,0,0,.67-3.34l-9.1-12a5.07,5.07,0,0,0-4-2l-49.59-.41s-18.67-1.08-33.38,7.15C238.22,178.45,222,190.83,222,190.83Z"/><path class="cls-24" d="M253.24,163.86s3.41,1.56,1.19,3-36.74,23.2-36.74,23.2l-7.93-3.59C223.81,178.64,238,171,253.24,163.86Z"/><path class="cls-19" d="M218.81,190.6l-.21.06-.63.13-2.42.51c-2.11.41-5.16,1-8.94,1.65-7.57,1.3-18.08,2.82-29.75,3.83-2.92.26-5.77.46-8.53.65s-5.41.34-7.94.58a68.83,68.83,0,0,0-13.25,2.26,37.37,37.37,0,0,0-8.35,3.49c-.95.5-1.63,1-2.11,1.29l-.54.34-.19.11a1.22,1.22,0,0,1,.17-.13l.53-.36c.48-.31,1.15-.81,2.09-1.33a36.34,36.34,0,0,1,8.35-3.56,67.43,67.43,0,0,1,13.28-2.33c2.53-.24,5.19-.41,7.94-.59s5.61-.4,8.53-.65c11.66-1,22.17-2.5,29.74-3.76,3.78-.63,6.84-1.19,8.95-1.58l2.43-.46.63-.12Z"/><path class="cls-19" d="M410.66,221.11c0,.06-4.55.12-10.15.12s-10.14-.06-10.14-.12,4.54-.12,10.14-.12S410.66,221.05,410.66,221.11Z"/><path class="cls-19" d="M327.59,232.7c0,.06-25.63.11-57.24.11s-57.25-.05-57.25-.11,25.63-.12,57.25-.12S327.59,232.63,327.59,232.7Z"/><path class="cls-19" d="M148.13,221.49c0,.07-3.62.12-8.09.12s-8.1-.05-8.1-.12,3.63-.11,8.1-.11S148.13,221.43,148.13,221.49Z"/><path class="cls-24" d="M383.78,171.72s-3,3.41-1.84,5.91,13.55,11.24,13.55,11.24l9,1.69Z"/><polygon class="cls-24" points="298.5 165.63 296.48 187.41 332.57 186.38 347.12 177.92 337.7 165.63 298.5 165.63"/><path class="cls-24" d="M230.56,188.52s21.78-15.72,30.37-18.85c8.29-3,12.61-3.77,20.4-4,7.45-.21,12,0,12,0l-5.75,22.15Z"/><path class="cls-17" d="M227.38,188.6h0a3.81,3.81,0,0,1,1.94-3.33l5-2.81a9.52,9.52,0,0,1,4.67-1.22h0a9.61,9.61,0,0,1,3,.47,5.42,5.42,0,0,1,3.64,5h0a5.51,5.51,0,0,1-5.51,5.72h-8.91A3.82,3.82,0,0,1,227.38,188.6Z"/><path class="cls-19" d="M227.38,188.6s0,.16.05.48a4.23,4.23,0,0,0,.44,1.31,4,4,0,0,0,1.54,1.51,3.92,3.92,0,0,0,1.28.4c.48.06,1,0,1.54,0l7.63,0A5.83,5.83,0,0,0,242,192a5.47,5.47,0,0,0,3.16-3.14,5.51,5.51,0,0,0,.33-2.36,5.39,5.39,0,0,0-2.25-4,5.79,5.79,0,0,0-2.07-.87,10,10,0,0,0-2.16-.26,9.58,9.58,0,0,0-3.92.84c-.57.26-1.1.59-1.62.87l-1.49.83-2.56,1.42a3.88,3.88,0,0,0-2,2.81c0,.32,0,.49-.05.49a1.83,1.83,0,0,1,0-.49,3.59,3.59,0,0,1,.41-1.35,3.85,3.85,0,0,1,1.54-1.58c.76-.42,1.61-.91,2.55-1.45l1.48-.84c.52-.28,1-.61,1.63-.88a9.62,9.62,0,0,1,4-.88,9.86,9.86,0,0,1,2.21.25,6,6,0,0,1,2.15.9,5.63,5.63,0,0,1,.67,8.64,5.47,5.47,0,0,1-2,1.24,5.81,5.81,0,0,1-2.2.36l-7.63,0c-.54,0-1.06,0-1.56,0a3.88,3.88,0,0,1-1.32-.44,4,4,0,0,1-1.56-1.58,3.75,3.75,0,0,1-.4-1.34A2.57,2.57,0,0,1,227.38,188.6Z"/><path class="cls-23" d="M395.14,246.71s0-.11,0-.31l.06-.91c0-.4.08-.89.1-1.47s0-1.26.07-2,0-1.6,0-2.52-.07-1.92-.19-3a38.53,38.53,0,0,0-1.29-7.18,33.66,33.66,0,0,0-1.42-4,26.05,26.05,0,0,0-2.16-4.05,27.37,27.37,0,0,0-7-7.28,32.89,32.89,0,0,0-10-4.93,41.8,41.8,0,0,0-11.89-1.59,39,39,0,0,0-11.87,1.73,32.89,32.89,0,0,0-5.28,2.18,29.64,29.64,0,0,0-4.58,3,38.24,38.24,0,0,0-7.07,7.24,29.43,29.43,0,0,0-2.35,3.94,41.82,41.82,0,0,0-1.62,3.92A46.46,46.46,0,0,0,326.11,242a34.64,34.64,0,0,0,0,3.48c0,.39,0,.7.05.91s0,.31,0,.31l0-.31c0-.21,0-.51-.08-.91,0-.79-.07-2,0-3.49a45.48,45.48,0,0,1,2.51-12.56,39.57,39.57,0,0,1,1.61-3.95,28.37,28.37,0,0,1,2.36-4,38,38,0,0,1,7.08-7.3,30.94,30.94,0,0,1,4.62-3,34.24,34.24,0,0,1,5.31-2.2,39.42,39.42,0,0,1,11.94-1.74,41.87,41.87,0,0,1,11.95,1.6,33.25,33.25,0,0,1,10.07,5,30.77,30.77,0,0,1,3.94,3.46,24.61,24.61,0,0,1,3.07,3.89,26.8,26.8,0,0,1,2.15,4.09,34.05,34.05,0,0,1,1.42,4,38.71,38.71,0,0,1,1.26,7.21c.12,1.07.12,2.07.17,3s0,1.76,0,2.52-.06,1.43-.09,2-.09,1.08-.12,1.48-.06.69-.08.9S395.14,246.71,395.14,246.71Z"/><path class="cls-23" d="M286.6,190.83h-.4l-1.16,0-4.28.08c-3.62.06-8.6.2-14.12.35s-10.5.25-14.11.28c-1.81,0-3.27,0-4.28,0l-1.17,0h0l1.16,0,4.28-.07c3.62-.07,8.61-.21,14.12-.36s10.5-.25,14.11-.28H285l1.17,0h.4Z"/><path class="cls-23" d="M280.69,197.54a69.55,69.55,0,0,1-7.82,0,63.76,63.76,0,0,1,7.82,0Z"/><path class="cls-23" d="M282.12,173.67c0,.06-4.82,2.08-10.83,4.51s-10.9,4.35-10.92,4.29,4.82-2.08,10.83-4.51S282.1,173.61,282.12,173.67Z"/><path class="cls-23" d="M272.29,175.19c0,.06-4.59,2.09-10.31,4.54s-10.38,4.39-10.41,4.34,4.59-2.1,10.32-4.55S272.27,175.13,272.29,175.19Z"/><path class="cls-23" d="M334.63,172.82c0,.06-4.82,2.08-10.83,4.51s-10.9,4.36-10.92,4.3,4.82-2.08,10.83-4.51S334.61,172.76,334.63,172.82Z"/><path class="cls-23" d="M324.8,174.35c0,.06-4.59,2.09-10.31,4.54s-10.38,4.39-10.41,4.33,4.59-2.09,10.32-4.54S324.78,174.29,324.8,174.35Z"/><path class="cls-23" d="M335.58,190.83c0,.06-9.65.17-21.54.24s-21.55.08-21.55,0,9.64-.17,21.54-.24S335.58,190.76,335.58,190.83Z"/><path class="cls-23" d="M346.27,197.16c0,.07-2.71.14-6,.18s-6,0-6-.06,2.7-.15,6-.18S346.26,197.1,346.27,197.16Z"/><path class="cls-23" d="M161.54,193.87l-.26,0-.76.1c-.33,0-.73.08-1.19.16s-1,.14-1.58.26c-1.16.2-2.54.51-4.05.91a50,50,0,0,0-4.82,1.59,48,48,0,0,0-4.62,2.11c-1.38.73-2.6,1.44-3.59,2.09-.51.31-.94.62-1.33.88s-.72.49-1,.69l-.62.44c-.15.1-.22.15-.23.14l.2-.18.6-.47c.26-.21.58-.46,1-.73s.82-.59,1.32-.91c1-.66,2.19-1.39,3.58-2.14a43.06,43.06,0,0,1,9.49-3.72c1.52-.39,2.9-.68,4.07-.86.59-.11,1.12-.17,1.59-.23s.87-.1,1.2-.12l.76-.06Z"/><path class="cls-23" d="M241.19,183.34s-.13-.17-.43-.41a3,3,0,0,0-1.47-.6,6.47,6.47,0,0,0-2.38.26,19,19,0,0,0-2.81.95,18.44,18.44,0,0,0-4.57,2.85c-1.06.89-1.62,1.54-1.65,1.51a2.35,2.35,0,0,1,.37-.47,15.82,15.82,0,0,1,1.17-1.17,17.2,17.2,0,0,1,7.44-3.88,6.27,6.27,0,0,1,2.45-.21,2.87,2.87,0,0,1,1.51.69,2.5,2.5,0,0,1,.3.34C241.17,183.29,241.2,183.34,241.19,183.34Z"/><path class="cls-19" d="M384.79,171.56a7.22,7.22,0,0,1-1.9.2,12,12,0,0,1-2.22-.28,19.44,19.44,0,0,1-2.84-.87c-1-.39-2.13-.89-3.32-1.39l-1.85-.75c-.64-.25-1.31-.47-2-.72a77.71,77.71,0,0,0-9.09-2.48,104.91,104.91,0,0,0-17-2.11c-1.09-.06-2.09-.06-3-.09H339.4l-1.41,0h-.5l.13,0,.36,0,1.42-.08,2.23,0c.88,0,1.87,0,3,.05a100.2,100.2,0,0,1,17,2,75.5,75.5,0,0,1,9.11,2.51c.68.25,1.36.47,2,.73l1.85.76c1.18.52,2.28,1,3.3,1.41a19.55,19.55,0,0,0,2.81.9,12.13,12.13,0,0,0,2.2.32,10.26,10.26,0,0,0,1.4-.06l.37,0Z"/></g></g></g></svg>