<svg xmlns="http://www.w3.org/2000/svg" viewBox="0 0 926.4 470.71"><defs><style>.cls-1,.cls-10{fill:#fff;}.cls-1{opacity:0.35;}.cls-2{fill:#ebebeb;}.cls-3{fill:#e0e0e0;}.cls-4{fill:#f5f5f5;}.cls-5{fill:#263238;}.cls-6{fill:#e8505b;}.cls-7{opacity:0.5;}.cls-8{fill:#fafafa;}.cls-9{opacity:0.4;}.cls-11{fill:#455a64;}.cls-12{opacity:0.2;}.cls-13{fill:#b78876;}.cls-14{fill:#aa6550;}.cls-15{opacity:0.3;}</style></defs><title>login-driver</title><g id="Layer_2" data-name="Layer 2"><g id="Plant"><ellipse class="cls-1" cx="618.82" cy="209.4" rx="307.58" ry="209.4"/><ellipse class="cls-1" cx="314.1" cy="256.87" rx="314.1" ry="213.84"/><path class="cls-2" d="M788,146.13a13.57,13.57,0,0,1,3.48,10,24.14,24.14,0,0,1-3.24,10.34c-3.4,6.18-9.77,11.21-15.86,14.75-3.5-7-1.34-15.82,0-20.23,2.18-7,10.34-18.23,15.59-14.9"/><path class="cls-2" d="M774.3,194.57a11.57,11.57,0,0,1,7.64-8.77,15.42,15.42,0,0,1,11.84,1c1.68.85,3.35,2.12,3.76,4a4.94,4.94,0,0,1-1.84,4.67,10,10,0,0,1-4.83,2c-6,1-11.89.93-16.57-2.87"/><path class="cls-3" d="M759.13,211.56a7.14,7.14,0,0,1,.75-1.25c.55-.87,1.27-2,2.13-3.33,1.84-2.76,4.39-6.75,8.44-10a25,25,0,0,1,11.85-5.38,17.24,17.24,0,0,1,4-.1c.47,0,.82.12,1.07.15s.37.08.36.1a25.93,25.93,0,0,0-5.35.21,25.64,25.64,0,0,0-11.59,5.42c-4,3.15-6.54,7.06-8.46,9.77-.95,1.37-1.72,2.48-2.27,3.24A7.44,7.44,0,0,1,759.13,211.56Z"/><path class="cls-3" d="M782.51,155.26a2.7,2.7,0,0,1-.17.61c-.15.44-.35,1-.59,1.71-.52,1.48-1.29,3.61-2.28,6.24-2,5.26-4.78,12.5-8.07,20.41s-6.44,15-8.78,20.11c-1.18,2.55-2.14,4.61-2.83,6L759,212a2.63,2.63,0,0,1-.31.55,3.77,3.77,0,0,1,.22-.59l.71-1.66,2.68-6.09c2.26-5.14,5.35-12.25,8.64-20.16s6.16-15.11,8.21-20.34c1-2.56,1.83-4.66,2.43-6.18.27-.69.5-1.25.67-1.68A3.2,3.2,0,0,1,782.51,155.26Z"/><path class="cls-2" d="M763.24,194.63a27.09,27.09,0,0,0-6.14-24c-1.47-1.62-3.61-3.17-5.67-2.43s-2.73,3.32-2.77,5.51a23.14,23.14,0,0,0,14.23,21.38"/><path class="cls-3" d="M755.45,177.16a6.76,6.76,0,0,1,.95,1,15.37,15.37,0,0,1,1,1.23c.36.51.83,1,1.23,1.73a22.46,22.46,0,0,1,1.32,2.22,26.79,26.79,0,0,1,1.27,2.68,30.16,30.16,0,0,1,1.82,6.53,29.46,29.46,0,0,1,.18,6.78,26.5,26.5,0,0,1-.46,2.93,22.68,22.68,0,0,1-.64,2.5,18.83,18.83,0,0,1-.72,2,12.65,12.65,0,0,1-.65,1.47,6.5,6.5,0,0,1-.66,1.19c-.1,0,.82-1.77,1.68-4.76a22.77,22.77,0,0,0,.58-2.48c.19-.89.29-1.87.4-2.89a28.77,28.77,0,0,0-2-13.1,26.24,26.24,0,0,0-1.21-2.65,24.82,24.82,0,0,0-1.24-2.22C756.7,178.65,755.37,177.23,755.45,177.16Z"/><path class="cls-2" d="M166.57,83.8s-9.21,3-.28,22.69,15.28,29.58,15.28,29.58,1.54,4.56-2.26,5.08-12-1.2-13.92,3.33c-2,4.7,1.29,9.37,8.15,13.65s21.51,14.22,22.83,15.13,2.54,3,0,3.8-21.26,1.83-20.22,10.69,22.08,17.66,24.37,18.67,2.79,2,2.54,3.28-6.58,1-11.9,1.56-11.39,2.06-10.36,7.12S194,234.55,224.68,239L239,240.15l8.39-11.76c16.41-26.28,15.82-42.76,12.62-46.81s-8.29-.42-12.13,3.3-7.75,8.7-8.88,8.07-1.57-1.67-.86-4.07,7.6-24.13,1.51-30.65-19,7.08-21.24,8.51-3.05-.9-2.89-2.46,2.07-19.21,3.23-27.21-.3-13.5-5.15-15c-4.68-1.49-8.69,5.9-11.54,8.46s-5.33-1.55-5.33-1.55-3.41-11.23-12.69-30.79-17.68-14.29-17.68-14.29"/><path class="cls-3" d="M239.61,243.57c-6.76-14.39-18.34-40.18-28.4-62.26S192,139.25,185.34,124.83l-7.93-17.08-2.16-4.64c-.23-.52-.42-.92-.55-1.21s-.17-.42-.17-.42.08.13.21.4l.59,1.19,2.23,4.61c1.94,4,4.69,9.82,8.07,17,6.76,14.39,15.93,34.35,26,56.42s21.6,47.89,28.29,62.32"/><path class="cls-3" d="M176.8,147.34a4.5,4.5,0,0,1,1,.32c.63.24,1.52.6,2.63,1.07,2.2.92,5.21,2.28,8.5,3.84l8.42,4,2.56,1.2a3.94,3.94,0,0,1,.92.48,4.9,4.9,0,0,1-1-.32c-.62-.24-1.52-.6-2.62-1.08-2.19-.95-5.18-2.34-8.48-3.9l-8.44-4-2.57-1.19A4.61,4.61,0,0,1,176.8,147.34Z"/><path class="cls-3" d="M201.85,157.4c-.11,0,2.41-6.37,5.65-14.13s5.94-14,6.06-14-2.42,6.38-5.65,14.14S202,157.45,201.85,157.4Z"/><path class="cls-3" d="M215.77,192a4.34,4.34,0,0,1,.62-.86l1.81-2.25c1.53-1.9,3.63-4.53,5.83-7.52s4.13-5.76,5.49-7.78c.65-.95,1.19-1.74,1.62-2.39a4.4,4.4,0,0,1,.64-.84,4.79,4.79,0,0,1-.49.94c-.34.59-.85,1.44-1.5,2.47-1.3,2.06-3.18,4.87-5.4,7.86s-4.35,5.61-5.94,7.46c-.8.93-1.46,1.67-1.93,2.16A5.12,5.12,0,0,1,215.77,192Z"/><path class="cls-3" d="M191.11,187.89a4,4,0,0,1,1,.06l2.65.34c2.23.3,5.31.75,8.71,1.27s6.47,1,8.69,1.41l2.63.47a4.28,4.28,0,0,1,.95.24,4.81,4.81,0,0,1-1-.06l-2.65-.34c-2.23-.3-5.31-.75-8.71-1.28s-6.47-1-8.69-1.4l-2.63-.48A4,4,0,0,1,191.11,187.89Z"/><path class="cls-3" d="M199.51,220a6.56,6.56,0,0,1,1.26.09l3.39.42c2.87.37,6.82.92,11.18,1.55s8.31,1.22,11.16,1.67l3.38.56a6.73,6.73,0,0,1,1.22.26,6.47,6.47,0,0,1-1.25-.09l-3.39-.42c-2.87-.37-6.82-.91-11.18-1.54s-8.31-1.22-11.16-1.68l-3.38-.56A7.34,7.34,0,0,1,199.51,220Z"/><path class="cls-3" d="M230.38,224.23a8.75,8.75,0,0,1,.76-1.11l2.2-2.93c1.85-2.48,4.39-5.91,7.08-9.78s5.06-7.43,6.75-10l2-3.07a8.51,8.51,0,0,1,.78-1.1,8.33,8.33,0,0,1-.63,1.19c-.43.75-1.07,1.83-1.88,3.15-1.62,2.64-3.94,6.23-6.65,10.11s-5.29,7.28-7.2,9.71c-1,1.22-1.75,2.19-2.31,2.85A8.66,8.66,0,0,1,230.38,224.23Z"/><path class="cls-4" d="M464,202.1c-25.62-12.89-35.26-42.3-38.26-69.56-.5-4.55-1.69-9.25-.11-13.54s6.22-7.72,10.55-6.4c3.59,1.1,5.62,4.8,8,7.76A26.84,26.84,0,0,0,456.2,129c3.1,1.08,6.8,1.47,9.42-.51,3.59-2.72,3.28-8.18,2.6-12.68q-1.91-12.57-3.8-25.15c-.68-4.5-1.36-9.1-.58-13.58s3.31-8.89,7.42-10.71,9.76-.11,11.31,4.16c.64,1.78.54,3.74.93,5.59s1.57,3.8,3.42,4.06,3.49-1.27,4.65-2.78c4-5.22,6.3-11.53,8.4-17.79s4.11-12.62,7.61-18.19,8.76-10.34,15.16-11.64,13.84,1.69,16.39,7.78-.22,13.09-3.51,18.81a101.62,101.62,0,0,1-18,23c-1.27,1.21-2.65,2.52-3,4.27-.55,3.14,2.73,5.71,5.84,6.27,3.51.64,7.11-.24,10.68-.33s7.6.9,9.4,4c2.51,4.33-.64,9.71-4,13.42a86.93,86.93,0,0,1-23.36,18.4c-3.14,1.69-6.47,3.26-8.8,6s-3.36,7-1.29,9.93,6.36,3.36,9.74,2.21,6.21-3.47,9.33-5.2c5.85-3.23,13.91-4,18.65.82,3.11,3.14,4,8,3.33,12.38s-2.86,8.38-5.21,12.12c-8.24,13.07-19.58,24.27-33.22,31.33S479,205.26,464,202.1"/><path class="cls-3" d="M468.52,184.09c2-14.27,5.52-29.72,9.74-45.76l3.16-11.87c1.05-3.89,2.09-7.75,3.34-11.46a203.94,203.94,0,0,1,8.41-20.92c3-6.52,6.08-12.6,9-18.27s5.77-10.88,8.56-15.53a162.71,162.71,0,0,1,14.77-21c1.93-2.33,3.49-4.08,4.56-5.26l1.23-1.33a2.88,2.88,0,0,1,.44-.43,4.14,4.14,0,0,1-.38.49l-1.16,1.38c-1,1.22-2.55,3-4.44,5.36a169.48,169.48,0,0,0-14.51,21.06c-2.75,4.65-5.55,9.88-8.45,15.55s-6,11.76-8.92,18.27a207.87,207.87,0,0,0-8.33,20.86c-1.24,3.69-2.26,7.52-3.31,11.42l-3.17,11.86a418.54,418.54,0,0,0-9.78,45.65"/><path class="cls-3" d="M485,114.93a8.45,8.45,0,0,1-.72-1.85c-.42-1.21-1-3-1.6-5.18-1.29-4.39-2.86-10.52-4.56-17.28s-3.35-12.85-4.7-17.21c-.67-2.18-1.23-3.94-1.63-5.15a8.92,8.92,0,0,1-.53-1.92,9.27,9.27,0,0,1,.84,1.81c.49,1.18,1.14,2.91,1.88,5.08,1.5,4.33,3.25,10.41,4.95,17.18s3.17,12.72,4.32,17.33l1.34,5.24A10.28,10.28,0,0,1,485,114.93Z"/><path class="cls-3" d="M541.33,95.74a11.55,11.55,0,0,1-2.27.61c-1.47.35-3.59.84-6.2,1.53-5.22,1.34-12.36,3.44-20.14,6.11S498,109.39,493,111.51c-2.49,1-4.48,1.93-5.86,2.54a11.66,11.66,0,0,1-2.18.88,13.11,13.11,0,0,1,2-1.17c1.34-.71,3.3-1.69,5.77-2.8,4.91-2.27,11.84-5.09,19.64-7.78a206.11,206.11,0,0,1,20.28-5.88c2.63-.62,4.79-1,6.28-1.27A13.49,13.49,0,0,1,541.33,95.74Z"/><path class="cls-3" d="M469.08,182.92a2.89,2.89,0,0,1-.5-.65l-1.3-2c-1.11-1.7-2.66-4.2-4.53-7.32-3.76-6.23-8.67-15-14-24.74s-10.12-18.55-13.73-24.85L430.75,116c-.46-.81-.84-1.48-1.16-2a3,3,0,0,1-.35-.74,3,3,0,0,1,.5.65l1.29,2c1.11,1.7,2.66,4.2,4.54,7.31,3.75,6.23,8.66,15,13.95,24.75s10.12,18.55,13.73,24.85l4.31,7.44c.46.82.85,1.49,1.16,2A3.18,3.18,0,0,1,469.08,182.92Z"/><path class="cls-3" d="M542.43,147a3.36,3.36,0,0,1-.72.43l-2.13,1.07-7.85,3.86c-6.63,3.26-15.73,7.87-25.79,13S486.73,175,480,178.1c-3.35,1.57-6.07,2.8-8,3.62l-2.2.93a3,3,0,0,1-.78.27s.23-.17.71-.43l2.13-1.07,7.85-3.86c6.63-3.26,15.74-7.87,25.8-13s19.21-9.64,25.91-12.76c3.35-1.57,6.07-2.8,8-3.62l2.19-.93A3.17,3.17,0,0,1,542.43,147Z"/><path class="cls-4" d="M669.73,79.1c0-16.31-17.15-26.65-34.62-18.47a19.79,19.79,0,0,0-9.2,8.81c-4.4,8.52-2.46,18.25,1.53,26.32L641,130.24a5.87,5.87,0,0,0,10.93-.05L665.3,95.54C669.92,85,669.73,79.1,669.73,79.1ZM653.31,93.3c-11.75,6.83-23.66-5.8-17.22-18.26a9.83,9.83,0,0,1,3.73-4c11.75-6.83,23.66,5.8,17.22,18.26A9.83,9.83,0,0,1,653.31,93.3Z"/><path class="cls-5" d="M811.47,411.54c0,.14-150,.26-335,.26s-335-.12-335-.26,150-.26,335-.26S811.47,411.39,811.47,411.54Z"/><rect class="cls-6" x="223.76" y="276.57" width="554.82" height="81.41"/><g class="cls-7"><rect x="223.76" y="276.57" width="554.82" height="81.41"/></g><circle class="cls-5" cx="298.31" cy="357.44" r="53.5" transform="translate(-23.32 20.83) rotate(-3.85)"/><path class="cls-5" d="M244.82,356.53a.71.71,0,0,1,0,.14,53.5,53.5,0,0,0,107,1.54v-.14Z"/><path class="cls-8" d="M260.75,356.9a37.56,37.56,0,1,0,38.1-37A37.55,37.55,0,0,0,260.75,356.9Z"/><path class="cls-3" d="M298.85,319.88a37.56,37.56,0,0,0-38.1,37L335.86,358A37.56,37.56,0,0,0,298.85,319.88Z"/><path class="cls-5" d="M275.43,357.11a22.88,22.88,0,1,0,23.21-22.55A22.88,22.88,0,0,0,275.43,357.11Z"/><circle class="cls-5" cx="707.41" cy="357.44" r="53.5" transform="translate(-19.49 41.51) rotate(-3.32)"/><path class="cls-5" d="M653.93,356.53a.61.61,0,0,0,0,.14,53.5,53.5,0,0,0,107,1.54v-.14Z"/><path class="cls-8" d="M669.85,356.9a37.56,37.56,0,1,0,38.1-37A37.56,37.56,0,0,0,669.85,356.9Z"/><path class="cls-3" d="M708,319.88a37.56,37.56,0,0,0-38.1,37L745,358A37.56,37.56,0,0,0,708,319.88Z"/><path class="cls-5" d="M684.53,357.11a22.88,22.88,0,1,0,23.21-22.55A22.88,22.88,0,0,0,684.53,357.11Z"/><path class="cls-6" d="M368.44,230.77s-78.78,5.81-108,12.36c-20.58,4.62-60.26,12.58-59.79,37.55l3.15,17.89s-14.72,6.73-14.72,23.88-3.6,43.77,30.76,44.83c5.66.18,16.42,0,16.42,0s-6.6-73.17,60.63-75.31c68.39-2.18,63.85,74.64,63.85,74.64H646.18s-11.71-74.85,61.91-74.95,62.42,75.44,62.42,75.44,27.08,2.34,39.68-20.42,9.32-39,9.32-39l-.42-14.39a9.29,9.29,0,0,0-9-9h0s4.92-36.23-2.63-42.5-48.92-44.09-48.92-44.09l2-1.24a4.64,4.64,0,0,0-1-8.32c-15.7-5.4-46.76-16.09-54.06-18.64a13.2,13.2,0,0,0-3.4-.71c-4.35-.34-16.69-1.12-39.34-1.36-27.59-.29-137.13,0-137.13,0s-37.7,3.1-58.7,12.34C444.88,189.5,368.44,230.77,368.44,230.77Z"/><g class="cls-9"><path d="M209.07,320.47c-2.85-.58-7.24-.64-9.41,1.3-1.62,1.44-2,3.76-2.3,5.91a25.64,25.64,0,0,0,.2,8.87,10.83,10.83,0,0,0,5,7.07c2.61,1.42,6.2,1.19,8.23-1,1.85-2,2.07-5,2-7.68-.07-3.86.24-7.13-.47-10.92a5.48,5.48,0,0,0-1-2.2,3,3,0,0,0-2.29-1.37"/></g><path class="cls-8" d="M203.82,298.57c8.37,0,16.48-.46,24.82-1a3,3,0,0,0,3.42-3.82c0-4.48-.19-9.57-3.59-12.5-2.07-1.78-4.92-2.33-7.65-2.59a49.57,49.57,0,0,0-20.15,2Z"/><path class="cls-10" d="M377.48,364.32s0-.24-.07-.71-.07-1.19-.13-2.1c-.11-1.86-.25-4.58-.44-8.07s-.43-7.8-.94-12.75A99.66,99.66,0,0,0,373,324.06a75.48,75.48,0,0,0-8.06-18.76,58.84,58.84,0,0,0-15.56-17.36c-13.5-9.59-31.73-15-50.8-15.26s-37.27,5.82-50.43,15.88a74,74,0,0,0-16.37,16.71,79.11,79.11,0,0,0-9.59,18,73.57,73.57,0,0,0-4.05,16.37,69.6,69.6,0,0,0-.49,12.74,67.22,67.22,0,0,0,1,8c.17.9.29,1.59.38,2.07s.11.71.11.71-.06-.24-.16-.7-.24-1.17-.43-2.06a61.48,61.48,0,0,1-1.08-8,67.61,67.61,0,0,1,.41-12.79,73,73,0,0,1,4-16.46A79.3,79.3,0,0,1,231.38,305a74.46,74.46,0,0,1,16.44-16.84c13.22-10.15,31.51-16.25,50.73-16s37.48,5.7,51.07,15.39a59.29,59.29,0,0,1,15.65,17.53,75.51,75.51,0,0,1,8,18.88,99.13,99.13,0,0,1,2.88,16.7c.48,5,.68,9.26.85,12.77s.26,6.21.34,8.07q.06,1.37.09,2.1C377.48,364.08,377.48,364.32,377.48,364.32Z"/><path class="cls-5" d="M380.51,365.56s0-.2,0-.6l-.07-1.77c-.05-1.57-.12-3.89-.21-6.91-.18-6.06-.43-14.94-.75-26.22s-.68-25-1.11-40.71c-.11-3.92-.22-8-.33-12.15a41.22,41.22,0,0,1,.27-6.35c.15-1.07.31-2.14.46-3.22l.66-3.22a65.26,65.26,0,0,1,4.45-12.82,64,64,0,0,1,7.33-12.17l0,0,0,0,49.43-31.14L454,199.83a104.88,104.88,0,0,1,14.13-7.89,143.73,143.73,0,0,1,15.34-6.12c2.63-.92,5.32-1.68,8-2.48s5.43-1.46,8.2-2a187.5,187.5,0,0,1,31.86-4,298.77,298.77,0,0,1,30.84.11h.29l-.06.29-13.28,59.42v0l0,0a64.38,64.38,0,0,0-6,12.76,34.89,34.89,0,0,0-2,13.21c.34,4.39.46,8.68.57,12.85s.17,8.22.24,12.14c.23,15.7.29,29.4.34,40.68s0,20.14,0,26.2c0,3,0,5.34,0,6.91,0,.77,0,1.36,0,1.77s0,.6,0,.6,0-.2,0-.6,0-1,0-1.77c0-1.57,0-3.89,0-6.91,0-6.06-.08-14.92-.15-26.2s-.18-25-.44-40.67q-.12-5.9-.26-12.14c-.12-4.17-.25-8.45-.59-12.83a35.25,35.25,0,0,1,2-13.38,65.61,65.61,0,0,1,6-12.87l0,.08c4.08-18.3,8.52-38.26,13.24-59.43l.23.31a300.52,300.52,0,0,0-30.78-.09,187.19,187.19,0,0,0-31.78,4c-2.76.56-5.46,1.33-8.17,2s-5.37,1.55-8,2.47a144.06,144.06,0,0,0-15.29,6.1,104.44,104.44,0,0,0-14.07,7.85l-13.35,8.4-49.47,31.1.06,0a66.74,66.74,0,0,0-11.72,24.79c-2.25,8.57-1.12,17-1.1,24.85l1,40.7c.26,11.29.47,20.16.62,26.23.06,3,.11,5.34.14,6.91q0,1.17,0,1.77C380.52,365.36,380.51,365.56,380.51,365.56Z"/><path class="cls-5" d="M562.05,179.09l.47,0,1.38,0,5.3-.13,19.69-.39,66.39-1.13h.12l.08.09,9.3,11.39,26.57,32.57,3,3.71a21.47,21.47,0,0,1,2.48,4,20.74,20.74,0,0,1,.38,16.88l-3,7c-3.87,9-7,16.2-9.18,21.23-1.08,2.49-1.93,4.43-2.52,5.77-.28.64-.5,1.14-.66,1.49s-.25.5-.25.5.06-.18.2-.52l.62-1.51c.56-1.35,1.38-3.3,2.43-5.81,2.14-5,5.22-12.32,9-21.3,1.73-4.52,4.75-9.27,4.55-15.07a20.15,20.15,0,0,0-4.41-12.4l-3-3.7c-8.17-10-17.16-21-26.59-32.54l-9.3-11.39.21.09-66.39,1-19.69.23-5.31,0h-1.38A4.24,4.24,0,0,1,562.05,179.09Z"/><path class="cls-5" d="M528.54,267.37s.28,0,.8-.12a5.57,5.57,0,0,0,2.1-.83,5.38,5.38,0,0,0,2.14-2.79,6,6,0,0,0,.27-2.2,5.51,5.51,0,0,0-.62-2.38,5.31,5.31,0,0,0-4.6-2.8l-6.74,0-15.46,0a5.23,5.23,0,0,0-5.19,4.64,5.88,5.88,0,0,0,.64,3.53,5.32,5.32,0,0,0,2.56,2.27,7.92,7.92,0,0,0,3.32.41H511l5.87,0,8.51.08,2.32.05a3.87,3.87,0,0,1,.8.05,5.06,5.06,0,0,1-.8.05l-2.32.05-8.51.08-5.87,0h-3.28c-.57,0-1.11,0-1.72,0a5.54,5.54,0,0,1-1.78-.4,5.72,5.72,0,0,1-2.81-2.47,6.42,6.42,0,0,1-.72-3.83,5.75,5.75,0,0,1,5.7-5.11l15.46,0,6.74,0a5.63,5.63,0,0,1,5.55,5.61,6.17,6.17,0,0,1-.33,2.3,5.54,5.54,0,0,1-2.3,2.86,5.45,5.45,0,0,1-2.2.77A3.12,3.12,0,0,1,528.54,267.37Z"/><path class="cls-5" d="M676.47,267.37s.28,0,.8-.12a5.57,5.57,0,0,0,2.1-.83,5.38,5.38,0,0,0,2.14-2.79,6,6,0,0,0,.27-2.2,5.51,5.51,0,0,0-.62-2.38,5.31,5.31,0,0,0-4.6-2.8l-6.74,0-15.46,0a5.23,5.23,0,0,0-5.19,4.64,5.88,5.88,0,0,0,.64,3.53,5.32,5.32,0,0,0,2.56,2.27,7.92,7.92,0,0,0,3.32.41H659l5.87,0,8.51.08,2.32.05a3.87,3.87,0,0,1,.8.05,5.06,5.06,0,0,1-.8.05l-2.32.05-8.51.08-5.87,0h-3.28c-.57,0-1.11,0-1.72,0a5.54,5.54,0,0,1-1.78-.4,5.72,5.72,0,0,1-2.81-2.47,6.42,6.42,0,0,1-.72-3.83,5.75,5.75,0,0,1,5.7-5.11l15.46,0,6.74,0a5.63,5.63,0,0,1,5.55,5.61,6.17,6.17,0,0,1-.33,2.3,5.54,5.54,0,0,1-2.3,2.86,5.45,5.45,0,0,1-2.2.77A3.12,3.12,0,0,1,676.47,267.37Z"/><path class="cls-8" d="M806.2,243.23H776.6a10.93,10.93,0,0,0-9.67,5.84h0a10.92,10.92,0,0,0-.33,9.48l11.61,26.37,29.64-.29S814.15,251.21,806.2,243.23Z"/><path class="cls-5" d="M395.1,239.5l152.74-2.81,99.4-1.83L680,215.94a5.09,5.09,0,0,0,1.51-7.49l-20.4-26.81a11.38,11.38,0,0,0-8.94-4.48L541,176.26s-41.87-2.43-74.85,16C431.44,211.74,395.1,239.5,395.1,239.5Z"/><path class="cls-11" d="M465.1,179s7.66,3.49,2.67,6.73-82.36,52-82.36,52l-17.79-8.06C399.13,212.17,431,195.12,465.1,179Z"/><path class="cls-5" d="M387.91,239l-.47.13-1.41.3-5.43,1.13c-4.72.93-11.56,2.25-20,3.71-17,2.92-40.53,6.32-66.7,8.59-6.54.57-12.94,1-19.12,1.44s-12.14.78-17.8,1.3c-11.32,1-21.47,2.63-29.71,5.09a84.14,84.14,0,0,0-18.73,7.81c-2.12,1.12-3.64,2.22-4.72,2.88l-1.21.78c-.28.17-.43.24-.43.24l.4-.29,1.18-.81a55.28,55.28,0,0,1,4.68-3,82.15,82.15,0,0,1,18.73-8c8.26-2.5,18.43-4.2,29.77-5.21,5.67-.53,11.63-.92,17.81-1.33s12.57-.88,19.11-1.45c26.15-2.26,49.7-5.61,66.67-8.43,8.49-1.41,15.34-2.68,20.07-3.55l5.45-1,1.41-.26Z"/><path class="cls-5" d="M818,307.39c0,.14-10.18.26-22.74.26s-22.74-.12-22.74-.26,10.18-.26,22.74-.26S818,307.24,818,307.39Z"/><path class="cls-5" d="M631.8,333.37c0,.14-57.47.26-128.33.26s-128.35-.12-128.35-.26,57.45-.26,128.35-.26S631.8,333.22,631.8,333.37Z"/><path class="cls-5" d="M229.45,308.25c0,.14-8.12.26-18.14.26s-18.15-.12-18.15-.26,8.12-.26,18.15-.26S229.45,308.1,229.45,308.25Z"/><path class="cls-11" d="M757.78,196.66s-6.82,7.64-4.14,13.24S784,235.11,784,235.11l20.11,3.78Z"/><polygon class="cls-11" points="566.58 183 562.05 231.83 642.97 229.52 675.59 210.57 654.47 183 566.58 183"/><path class="cls-11" d="M414.27,234.33s48.81-35.26,68.07-42.26c18.59-6.77,28.28-8.46,45.75-9,16.69-.47,26.85,0,26.85,0L542,232.74Z"/><path class="cls-6" d="M407.12,234.49h0a8.56,8.56,0,0,1,4.37-7.46l11.21-6.3A21.44,21.44,0,0,1,433.17,218h0a21.35,21.35,0,0,1,6.66,1.07A12.15,12.15,0,0,1,448,230.22h0a12.35,12.35,0,0,1-12.34,12.83h-20A8.56,8.56,0,0,1,407.12,234.49Z"/><path class="cls-5" d="M407.12,234.49s0,.38.13,1.09a8.56,8.56,0,0,0,4.42,6.31,8.75,8.75,0,0,0,2.89.91c1.06.12,2.23,0,3.45.06l17.1-.05a13.12,13.12,0,0,0,4.77-.78,12.14,12.14,0,0,0,4.22-2.69A12,12,0,0,0,447,235a12.4,12.4,0,0,0,.75-5.29,12.16,12.16,0,0,0-5-9,12.9,12.9,0,0,0-4.64-1.95,21,21,0,0,0-13.62,1.31c-1.29.57-2.47,1.3-3.64,1.93l-3.34,1.86-5.75,3.19a8.56,8.56,0,0,0-4.42,6.31c-.11.7-.1,1.08-.13,1.08a5.31,5.31,0,0,1,0-1.09,8.36,8.36,0,0,1,.92-3,8.66,8.66,0,0,1,3.47-3.55l5.71-3.25,3.33-1.89c1.16-.64,2.33-1.38,3.65-2a21.69,21.69,0,0,1,9-2,22.28,22.28,0,0,1,5,.57,13.61,13.61,0,0,1,4.81,2,12.58,12.58,0,0,1,5.27,9.33,12.87,12.87,0,0,1-.78,5.52,12.66,12.66,0,0,1-7.39,7.3,13.72,13.72,0,0,1-4.94.8l-17.1-.06a33,33,0,0,1-3.49-.1,8.58,8.58,0,0,1-6.46-4.53,8.16,8.16,0,0,1-.91-3A6.09,6.09,0,0,1,407.12,234.49Z"/><path class="cls-10" d="M783.24,364.78s0-.24,0-.7.08-1.15.14-2,.16-2,.22-3.3.09-2.82.15-4.51,0-3.58,0-5.65-.14-4.31-.42-6.7a86.53,86.53,0,0,0-2.89-16.09,73.11,73.11,0,0,0-3.19-8.95,59.62,59.62,0,0,0-4.83-9.09,62.05,62.05,0,0,0-15.63-16.32,73.88,73.88,0,0,0-22.43-11.05c-8.34-2.56-17.41-3.49-26.65-3.55a87.28,87.28,0,0,0-26.61,3.87,75.24,75.24,0,0,0-11.84,4.88A68.43,68.43,0,0,0,659,292.31a85.78,85.78,0,0,0-15.83,16.24,63.73,63.73,0,0,0-5.27,8.84,91.71,91.71,0,0,0-3.64,8.79,104.56,104.56,0,0,0-5.77,28.06c-.16,3.39-.14,6-.06,7.81.05.88.09,1.56.12,2s0,.7,0,.7,0-.24-.07-.69-.1-1.15-.17-2a77.32,77.32,0,0,1,0-7.83,103.33,103.33,0,0,1,5.62-28.17,88.79,88.79,0,0,1,3.63-8.84,63,63,0,0,1,5.28-8.92,85.82,85.82,0,0,1,15.89-16.37A68.58,68.58,0,0,1,669,285.15,75.36,75.36,0,0,1,681,280.22a87.65,87.65,0,0,1,26.76-3.9c9.27.06,18.4,1,26.8,3.58a74.23,74.23,0,0,1,22.56,11.15,68,68,0,0,1,8.85,7.76,55.14,55.14,0,0,1,6.87,8.72,60.73,60.73,0,0,1,4.83,9.16,72,72,0,0,1,3.17,9,86.3,86.3,0,0,1,2.83,16.16c.26,2.4.26,4.66.38,6.72s0,4,0,5.66-.14,3.21-.2,4.52-.2,2.41-.27,3.3-.14,1.55-.19,2S783.24,364.78,783.24,364.78Z"/><path class="cls-10" d="M539.91,239.5l-.23,0-.68,0-2.61.05-9.59.18c-8.1.15-19.29.44-31.64.78s-23.55.58-31.66.63c-4.05,0-7.33,0-9.59,0l-2.61,0-.68,0-.23,0,.23,0,.68,0,2.61-.06,9.59-.17c8.1-.16,19.28-.45,31.64-.79s23.55-.58,31.65-.63c4.06,0,7.33,0,9.6,0l2.61,0,.68,0Z"/><path class="cls-10" d="M526.65,254.54a147.7,147.7,0,0,1-17.52,0,147.7,147.7,0,0,1,17.52,0Z"/><path class="cls-10" d="M529.86,201c.06.14-10.82,4.66-24.29,10.12s-24.43,9.76-24.48,9.63,10.82-4.66,24.29-10.12S529.81,200.89,529.86,201Z"/><path class="cls-10" d="M507.83,204.44c.05.13-10.3,4.69-23.13,10.19s-23.28,9.84-23.34,9.71,10.3-4.7,23.13-10.19S507.77,204.31,507.83,204.44Z"/><path class="cls-10" d="M647.59,199.13c0,.14-10.83,4.66-24.29,10.11s-24.44,9.77-24.49,9.63,10.82-4.66,24.29-10.11S647.53,199,647.59,199.13Z"/><path class="cls-10" d="M625.55,202.55c.06.13-10.3,4.69-23.13,10.18s-23.28,9.85-23.33,9.71,10.29-4.69,23.13-10.18S625.49,202.41,625.55,202.55Z"/><path class="cls-10" d="M649.71,239.49c0,.15-21.63.39-48.3.55s-48.32.17-48.32,0,21.63-.39,48.31-.55S649.71,239.35,649.71,239.49Z"/><path class="cls-10" d="M673.67,253.7c0,.14-6.07.32-13.55.39s-13.55,0-13.56-.14,6.07-.31,13.55-.38S673.66,253.56,673.67,253.7Z"/><path class="cls-10" d="M259.52,246.31a3.07,3.07,0,0,1-.59.11l-1.7.22c-.73.09-1.64.2-2.68.37s-2.23.32-3.53.58c-2.61.45-5.69,1.14-9.07,2s-7,2.11-10.82,3.57-7.25,3.13-10.36,4.73-5.82,3.24-8.05,4.68c-1.13.69-2.1,1.39-3,2s-1.61,1.11-2.21,1.55l-1.4,1a2.15,2.15,0,0,1-.5.31s.14-.15.44-.4l1.34-1.07c.58-.46,1.3-1,2.16-1.62s1.83-1.33,3-2.05c2.21-1.49,4.93-3.12,8-4.79a104.65,104.65,0,0,1,10.39-4.79,106.06,106.06,0,0,1,10.88-3.55,91.31,91.31,0,0,1,9.14-1.94c1.31-.24,2.51-.37,3.56-.51s2-.23,2.69-.28l1.71-.12A2.14,2.14,0,0,1,259.52,246.31Z"/><path class="cls-10" d="M438.09,222.71s-.3-.39-1-.93a6.66,6.66,0,0,0-3.31-1.33,14.43,14.43,0,0,0-5.33.58,40.1,40.1,0,0,0-6.3,2.14A41.43,41.43,0,0,0,412,229.54c-2.37,2-3.63,3.47-3.71,3.4a7.55,7.55,0,0,1,.85-1.07,31.92,31.92,0,0,1,2.62-2.61A38,38,0,0,1,422,222.69a38.59,38.59,0,0,1,6.39-2.13,14.1,14.1,0,0,1,5.49-.47,6.46,6.46,0,0,1,3.39,1.54,4.78,4.78,0,0,1,.67.77A1.27,1.27,0,0,1,438.09,222.71Z"/><path class="cls-5" d="M760,196.31a16.22,16.22,0,0,1-4.25.43,25.38,25.38,0,0,1-5-.62,43.7,43.7,0,0,1-6.36-2c-2.31-.87-4.77-2-7.43-3.11l-4.15-1.68c-1.43-.57-2.94-1.06-4.47-1.61A171.76,171.76,0,0,0,708,182.2a234.2,234.2,0,0,0-38.09-4.74c-2.45-.13-4.68-.14-6.63-.19h-5l-3.17.07H654a1,1,0,0,1,.27,0l.83-.06,3.16-.16,5-.09c2,0,4.19,0,6.65.11a222.7,222.7,0,0,1,38.18,4.6,170,170,0,0,1,20.43,5.61c1.53.57,3,1.07,4.47,1.64l4.16,1.71c2.65,1.16,5.1,2.28,7.39,3.17a47.05,47.05,0,0,0,6.3,2,28,28,0,0,0,4.93.7,22.31,22.31,0,0,0,3.15-.12l.82-.1A.84.84,0,0,1,760,196.31Z"/><path class="cls-6" d="M278.91,197.68c-4-21.88-6.68-25.24-8.94-32.77s-5.85-12.42-10.33-14.14c-3-1.16-18.06-6.59-23.3-4.79a64.88,64.88,0,0,0-14.53,7.3,19.46,19.46,0,0,0-7.59,9.69l-8.05,22.57,14.09,14.05,7.05-15,7.67,18-1.14,18.15,43.94,11.82C281.78,226.11,281.18,210.1,278.91,197.68Z"/><g class="cls-12"><path d="M267.47,173.82c-1.94,11.38-2.25,13-4.19,24.35-.66,3.91-2.61,10-5.39,12.83-2.07,2.09-4.09,4.11-6.95,4.79-2.66.63-6.71.7-9.22-.41s-4.63-6-3.6-8.5c3.72.79,4.87,2,8.09,0,2.8-1.79,6.77-5.73,8.3-8.68,6.41-12.4,8.17-12.84,13-24.38"/></g><path class="cls-5" d="M235.68,195.88a25.19,25.19,0,0,1-1.94-3l-4.53-7.39c-1.77-2.79-3.37-5.32-4.64-7.31a28,28,0,0,1-1.86-3.07,3.52,3.52,0,0,1,.63.73c.37.5.9,1.23,1.54,2.13,1.27,1.82,3,4.37,4.77,7.25s3.34,5.53,4.41,7.47c.53,1,1,1.77,1.23,2.32A3.63,3.63,0,0,1,235.68,195.88Z"/><path class="cls-5" d="M266.33,216.31a4.1,4.1,0,0,1-1,.39,10.35,10.35,0,0,1-1.24.35c-.5.11-1.05.26-1.68.35a27.91,27.91,0,0,1-4.45.4,31.37,31.37,0,0,1-5.45-.47,30.82,30.82,0,0,1-5.26-1.48,28,28,0,0,1-4-1.95,16.87,16.87,0,0,1-1.45-.92,11.41,11.41,0,0,1-1-.76,4.63,4.63,0,0,1-.83-.73c.06-.08,1.29.89,3.5,2.09a32,32,0,0,0,4,1.82,31,31,0,0,0,10.55,1.92,29.59,29.59,0,0,0,4.39-.29C264.81,216.69,266.31,216.22,266.33,216.31Z"/><path class="cls-13" d="M248.71,182.22c-.08.39-4.81,9.79-4.81,9.79l-22.27-11.73-2.28-9.61a6,6,0,0,0-7.21-4.42l-6.57,2.69a1.74,1.74,0,0,0-1.08,1.27c-.09.49,0,1,.87.89,1.63-.13,5-.49,5-.49l-1.56,5.47a5.87,5.87,0,0,0,.45,4.29l1,1.89,2.17,3.52,0,0s21.66,22.24,33.82,23.69c7.3.87,15.58-19.62,15.58-19.62Z"/><path class="cls-14" d="M210.2,171s.17-.23.54-.48a3,3,0,0,1,1.68-.52,1.8,1.8,0,0,1,1.5,1c.2.45.06.76,0,.74s0-.29-.24-.63a1.72,1.72,0,0,0-1.31-.74,3.35,3.35,0,0,0-1.56.39C210.47,170.89,210.22,171,210.2,171Z"/><path class="cls-14" d="M213,174.39s-.14-.18-.36-.44a2.54,2.54,0,0,0-1-.78,2.72,2.72,0,0,0-1.28-.14c-.33.05-.54.13-.56.08s.15-.19.51-.3a2.29,2.29,0,0,1,1.45.06,2.2,2.2,0,0,1,1.1.95C213,174.14,213,174.38,213,174.39Z"/><path class="cls-6" d="M253.33,152.55l-6,28.59,16,9.61,6.15-17.57S266.88,151.85,253.33,152.55Z"/><path class="cls-2" d="M262,153.06a2.24,2.24,0,0,1-.41.25c-.28.15-.68.37-1.22.64-1.06.55-2.61,1.3-4.56,2.17a67,67,0,0,1-15.9,5,39.65,39.65,0,0,1-16.62-.56,29.29,29.29,0,0,1-4.77-1.71c-.54-.24-.94-.48-1.22-.63s-.42-.23-.41-.25a16.76,16.76,0,0,1,1.72.69,31.64,31.64,0,0,0,4.77,1.54,41.27,41.27,0,0,0,16.45.41,72.69,72.69,0,0,0,15.83-4.84c2-.82,3.54-1.52,4.63-2A10.63,10.63,0,0,1,262,153.06Z"/><path class="cls-2" d="M266.15,156.21s-.14.13-.44.33l-1.33.85a24,24,0,0,1-2.15,1.25c-.86.45-1.82,1-3,1.5l-1.75.8c-.61.28-1.27.51-1.93.78-1.34.56-2.81,1-4.35,1.51a65.59,65.59,0,0,1-10.32,2.15,66.78,66.78,0,0,1-10.54.32c-1.61-.13-3.15-.23-4.58-.46-.71-.1-1.41-.17-2.06-.3l-1.89-.37c-1.21-.21-2.27-.53-3.21-.77a23.06,23.06,0,0,1-2.39-.72l-1.49-.51a2.08,2.08,0,0,1-.51-.22,3.3,3.3,0,0,1,.54.12l1.52.42c.65.2,1.45.42,2.4.63s2,.5,3.21.69l1.88.34c.66.11,1.35.17,2.06.26,1.41.22,2.94.29,4.55.41a68.37,68.37,0,0,0,10.45-.36,67.53,67.53,0,0,0,10.24-2.09c1.54-.49,3-.92,4.33-1.45.67-.26,1.33-.48,1.94-.75l1.75-.76c1.13-.47,2.09-1,3-1.43s1.6-.82,2.19-1.17l1.37-.76A2.8,2.8,0,0,1,266.15,156.21Z"/><path class="cls-5" d="M263.28,190.75a9.17,9.17,0,0,1-1.29-.66l-3.53-2-12-6.93-.16-.09,0-.18c.43-2.13.89-4.42,1.36-6.79.73-3.55,1.42-6.94,2-10,.34-1.54.6-3,.91-4.38a15.49,15.49,0,0,1,1.28-3.72,7.47,7.47,0,0,1,4.13-3.79,5,5,0,0,1,1.53-.25,1.88,1.88,0,0,1,.54.06,6.57,6.57,0,0,0-5.87,4.15,15.4,15.4,0,0,0-1.19,3.64c-.27,1.38-.56,2.84-.85,4.38-.62,3.09-1.3,6.48-2,10-.48,2.36-.94,4.65-1.38,6.79l-.12-.27,11.93,7.09,3.45,2.1A9.41,9.41,0,0,1,263.28,190.75Z"/><path class="cls-5" d="M268.18,172.34a10.91,10.91,0,0,1-.08,2.66,41.63,41.63,0,0,1-1.15,6.34,39.67,39.67,0,0,1-2.12,6.07,10.6,10.6,0,0,1-1.24,2.36,18,18,0,0,1,.9-2.5,62.07,62.07,0,0,0,2-6.07,60.53,60.53,0,0,0,1.28-6.24A17.14,17.14,0,0,1,268.18,172.34Z"/><path class="cls-11" d="M181.42,331.36l-.17,15.27s-15.58,4.94-15.89,7.76L195,355.8,196.2,332Z"/><path class="cls-3" d="M190.46,345.78a1.21,1.21,0,0,1,.77,1.42,1.16,1.16,0,0,1-1.4.77,1.27,1.27,0,0,1-.81-1.5,1.2,1.2,0,0,1,1.54-.65"/><path class="cls-3" d="M195,355.8l0-2.4L166.6,353s-1.34.51-1.24,1.44Z"/><path class="cls-5" d="M180.77,346.45c0,.15.72.25,1.41.75s1,1.12,1.17,1.07,0-.9-.88-1.49S180.75,346.32,180.77,346.45Z"/><path class="cls-5" d="M177.61,347.59c0,.14.57.41,1,1.05s.57,1.28.71,1.28.28-.81-.31-1.59S177.62,347.45,177.61,347.59Z"/><path class="cls-5" d="M175.67,351.22c.13,0,.37-.68,0-1.49s-1-1.15-1.06-1,.33.56.6,1.22S175.53,351.2,175.67,351.22Z"/><path class="cls-5" d="M181.2,343c.05.13.73,0,1.54.06s1.44.38,1.52.26-.51-.66-1.47-.76S181.13,342.86,181.2,343Z"/><g class="cls-15"><polygon points="181.39 334.38 181.36 337.1 195.91 337.66 196.04 335.21 181.39 334.38"/></g><path class="cls-5" d="M181.29,339.9a2.89,2.89,0,0,0,1.49.06,7.1,7.1,0,0,0,1.57-.4,7.53,7.53,0,0,0,.87-.41,1.59,1.59,0,0,0,.46-.33.64.64,0,0,0,.11-.77.83.83,0,0,0-.62-.36,2.33,2.33,0,0,0-.56.05,5.41,5.41,0,0,0-.94.28,5.13,5.13,0,0,0-1.4.83c-.72.6-1,1.13-.93,1.16s.42-.38,1.14-.88a6.15,6.15,0,0,1,1.36-.68,5.4,5.4,0,0,1,.86-.22c.32-.07.58-.06.66.09s0,.07,0,.16a2,2,0,0,1-.34.24,7.7,7.7,0,0,1-.81.41,8.51,8.51,0,0,1-1.46.48A10.28,10.28,0,0,0,181.29,339.9Z"/><path class="cls-5" d="M181.47,340.11a2.36,2.36,0,0,0,.46-1.41,4.51,4.51,0,0,0-.13-1.63,4.44,4.44,0,0,0-.33-.92,1.22,1.22,0,0,0-.91-.79.69.69,0,0,0-.64.38,2.28,2.28,0,0,0-.18.54,3.08,3.08,0,0,0,0,1,3.32,3.32,0,0,0,.56,1.56c.54.79,1.13,1,1.15.94s-.44-.37-.85-1.13a3.39,3.39,0,0,1-.4-1.41,2.81,2.81,0,0,1,.07-.86c.06-.31.19-.56.3-.52s.39.25.5.51a4.69,4.69,0,0,1,.33.82,5.33,5.33,0,0,1,.21,1.49C181.57,339.55,181.39,340.09,181.47,340.11Z"/><path class="cls-5" d="M241.72,220.85s-46.2-19.38-60.51-20.21c-9-.52-15.76,5.24-14.54,14.53.61,4.64,13.38,59,13.38,59l19.48-8.89-9.36-37.59,38,18.45Z"/><path class="cls-11" d="M184.34,218.18c-.16.13,1.38,2.1,3,4.72s2.69,4.86,2.87,4.78-.64-2.48-2.3-5.14S184.47,218.06,184.34,218.18Z"/><path class="cls-11" d="M180.55,220.34c-.1.17,2.24,1.65,5,3.67s4.85,3.79,5,3.65-1.81-2.16-4.58-4.2S180.64,220.18,180.55,220.34Z"/><path class="cls-5" d="M277.78,232.51S272,240,266.42,242.05c-7,2.57-58.45,26.87-58.45,26.87s-9.34,69.38-8.6,66.49l-21.56-.52L180.16,271c.28-8.19,6.84-17.58,13.88-21.76l47.68-28.37Z"/><path class="cls-11" d="M179.75,282.67a5,5,0,0,0,.09-.87c0-.65.07-1.48.13-2.52a83.27,83.27,0,0,1,.85-9.18,31.68,31.68,0,0,1,4.66-12.67A23.8,23.8,0,0,1,191,251.7a66.49,66.49,0,0,1,7.31-4.62c10.37-6,19.32-12,25.94-16.15,3.29-2.1,6-3.78,7.84-4.92l2.14-1.32a3.89,3.89,0,0,0,.73-.5,3.91,3.91,0,0,0-.8.38c-.51.27-1.26.67-2.21,1.22-1.9,1.07-4.63,2.68-8,4.73-6.68,4-15.68,10-26,16a64.36,64.36,0,0,0-7.38,4.69,24.23,24.23,0,0,0-5.65,5.9A31.46,31.46,0,0,0,180.35,270a72.34,72.34,0,0,0-.65,9.26v2.51A4.59,4.59,0,0,0,179.75,282.67Z"/><path class="cls-11" d="M258.76,239.83c.08-.09-.55-.67-1.32-1.78a12.87,12.87,0,0,1-2-10,19.67,19.67,0,0,0,.53-2.14,4.6,4.6,0,0,0-1,2,11.49,11.49,0,0,0,2.1,10.39A4.92,4.92,0,0,0,258.76,239.83Z"/><path class="cls-11" d="M185.73,334.89a1.31,1.31,0,0,0,.07-.36c0-.27.07-.62.13-1,.1-1,.25-2.32.43-4,.35-3.57.85-8.64,1.46-14.87.3-3.15.63-6.59,1-10.28s.72-7.64,1-11.79.72-8.51,1.48-13a53.51,53.51,0,0,1,4-13.34,44.66,44.66,0,0,1,7.83-11.47,69.23,69.23,0,0,1,9.76-8.6,198.66,198.66,0,0,1,18.75-11.71c5.47-3.14,9.83-5.82,12.73-7.84,1.46-1,2.56-1.81,3.3-2.38l.83-.66.27-.24a1.54,1.54,0,0,0-.32.19l-.87.6c-.76.53-1.88,1.31-3.36,2.27-2.93,1.95-7.32,4.55-12.81,7.64a187.5,187.5,0,0,0-18.89,11.62,70.36,70.36,0,0,0-9.88,8.65,45.22,45.22,0,0,0-8,11.64,53.76,53.76,0,0,0-4,13.52c-.75,4.49-1.14,8.87-1.44,13s-.62,8.1-.95,11.8-.62,7.13-.9,10.27c-.52,6.25-1,11.32-1.24,14.89-.13,1.72-.24,3.07-.31,4.05,0,.43,0,.78-.06,1.06A1.67,1.67,0,0,0,185.73,334.89Z"/><path class="cls-5" d="M236.48,110.79a8.41,8.41,0,0,0-9.63-5.18,10.52,10.52,0,0,1-2.69.58,20,20,0,0,1-3.25-.86,4.89,4.89,0,0,0-5.52,3.57,6.68,6.68,0,0,0-5.5,1.09,4.32,4.32,0,0,0-1.28,5.18c.39.73,1,1.31,1.38,2.06.59,1.23.32,2.71.74,4a5.41,5.41,0,0,0,4.66,3.35,15.88,15.88,0,0,0,6-.86"/><path class="cls-13" d="M227.2,150.34c-.25-1.94-.42-3.29-.42-3.29s-6.44-.05-9-8c-1.3-4-2.15-10.68-2.68-16.19a8.75,8.75,0,0,1,8.26-9.58l17.12-.9.37,2.65,4.51,32.92a9.14,9.14,0,0,1-7.87,10.3h0A9.14,9.14,0,0,1,227.2,150.34Z"/><path class="cls-5" d="M217.49,127.55a1.05,1.05,0,0,0,1.18.9,1,1,0,0,0,.93-1.12,1.07,1.07,0,0,0-1.18-.9A1,1,0,0,0,217.49,127.55Z"/><path class="cls-5" d="M217.06,126.07c.15.12.86-.6,2-.78s2,.26,2.15.1-.13-.29-.53-.5a3,3,0,0,0-1.75-.25,2.84,2.84,0,0,0-1.55.79C217.07,125.75,217,126,217.06,126.07Z"/><path class="cls-5" d="M228.23,125.73a1.07,1.07,0,0,0,1.18.9,1,1,0,0,0,.93-1.12,1.07,1.07,0,0,0-1.18-.9A1,1,0,0,0,228.23,125.73Z"/><path class="cls-5" d="M228.2,124.52c.16.11.86-.6,2-.78s2.05.26,2.15.1-.12-.3-.53-.5a2.82,2.82,0,0,0-1.74-.25,2.77,2.77,0,0,0-1.56.79C228.21,124.2,228.13,124.46,228.2,124.52Z"/><path class="cls-5" d="M225.44,133.55a7.07,7.07,0,0,0-1.89,0c-.3,0-.58,0-.66-.19a1.45,1.45,0,0,1,.06-.88c.16-.75.33-1.52.5-2.34a38.82,38.82,0,0,0,1-6,37.48,37.48,0,0,0-1.49,6c-.16.82-.32,1.59-.47,2.34a1.72,1.72,0,0,0,0,1.16.73.73,0,0,0,.54.34,1.63,1.63,0,0,0,.5,0A8,8,0,0,0,225.44,133.55Z"/><path class="cls-14" d="M226.78,147.05a21.06,21.06,0,0,0,10.5-4.67s-1.76,6.05-10.08,6.58Z"/><path class="cls-5" d="M228.89,133.8c-.19,0,0,1.25-.91,2.29s-2.24,1.11-2.22,1.28.33.19.88.12a3.13,3.13,0,0,0,1.87-1,2.74,2.74,0,0,0,.68-1.91C229.15,134.06,229,133.78,228.89,133.8Z"/><path class="cls-5" d="M227.21,120.13c.16.29,1.26,0,2.62-.08s2.48.14,2.61-.17c.06-.14-.18-.4-.66-.63a4.28,4.28,0,0,0-2-.36,4.39,4.39,0,0,0-2,.55C227.34,119.71,227.14,120,227.21,120.13Z"/><path class="cls-5" d="M217,122.73c.24.23,1-.16,1.91-.32s1.75-.11,1.89-.4-.1-.38-.49-.57a2.6,2.6,0,0,0-1.62-.17,2.66,2.66,0,0,0-1.44.75C216.92,122.34,216.85,122.62,217,122.73Z"/><path class="cls-5" d="M214.21,119.24s4.53,1.52,9.74-1.95c3.41-2.29,7.55-3.71,8.58-3.1s1.7,4.35,5.45,5c0,0,.66,7.19,3.49,6.58,2-.44.83-8.38,0-12.91a4,4,0,0,0-3.74-3.22l-5.27-.2-6.59,1.83-7.05,1.93-5.37,2.22Z"/><path class="cls-13" d="M240.83,122.85c.11-.08,4.48-2.38,5.29,2.39s-4.15,4.6-4.18,4.46S240.83,122.85,240.83,122.85Z"/><path class="cls-14" d="M243.09,127.65s.09,0,.24.08a.83.83,0,0,0,.63-.09,2.09,2.09,0,0,0,.64-2,2.88,2.88,0,0,0-.44-1.15,1,1,0,0,0-.73-.54.43.43,0,0,0-.45.31c0,.15,0,.24,0,.25s-.12-.06-.11-.26a.58.58,0,0,1,.13-.34.64.64,0,0,1,.44-.19,1.18,1.18,0,0,1,1,.59,2.88,2.88,0,0,1,.51,1.28,2.19,2.19,0,0,1-.86,2.26.91.91,0,0,1-.78,0C243.12,127.76,243.08,127.66,243.09,127.65Z"/><path class="cls-11" d="M216.5,107.15c.05,0,.17.25.51.64a4.14,4.14,0,0,0,1.8,1.16,6,6,0,0,0,3.18.13,27.55,27.55,0,0,0,3.84-1.22,10.58,10.58,0,0,1,4.09-.73,4.47,4.47,0,0,1,3.1,1.4,3.34,3.34,0,0,1,1,2.09,1.44,1.44,0,0,1-.15.83s0-.31-.06-.81a3.27,3.27,0,0,0-1-1.85,4.22,4.22,0,0,0-2.87-1.18,10.64,10.64,0,0,0-3.89.74,25.08,25.08,0,0,1-3.93,1.21,6.07,6.07,0,0,1-3.39-.27,3.93,3.93,0,0,1-1.83-1.38A1.58,1.58,0,0,1,216.5,107.15Z"/><path class="cls-11" d="M232.62,111.71s-.25-.25-.74-.59a4.44,4.44,0,0,0-2.4-.71,7.78,7.78,0,0,0-3.65.89,36.7,36.7,0,0,1-4.33,2,10.81,10.81,0,0,1-8.55-.93,9.29,9.29,0,0,1-2.1-1.61,3.51,3.51,0,0,1-.61-.76,19.43,19.43,0,0,0,2.89,2,10.89,10.89,0,0,0,8.21.76,43.85,43.85,0,0,0,4.29-2,7.87,7.87,0,0,1,3.87-.82,4.34,4.34,0,0,1,2.5.92A1.89,1.89,0,0,1,232.62,111.71Z"/><path class="cls-13" d="M217.81,193l-23.23-19.8-7.65,1.73s8.07,16.78,13.91,22.93c0,0,5.77,7.73,15.28,4.39S217.81,193,217.81,193Z"/><path class="cls-11" d="M192.83,151.39H183a2.5,2.5,0,0,0-2.29,3.14l9.93,19.34a2.23,2.23,0,0,0,2,1.22l12,0a1.72,1.72,0,0,0,1.31-2.55l-9.58-18.92A3.93,3.93,0,0,0,192.83,151.39Z"/><path class="cls-5" d="M192.16,152.55h-9.87a1.65,1.65,0,0,0-1.47,2.4l9.69,18.92a2.23,2.23,0,0,0,2,1.22H204.4a1,1,0,0,0,.87-1.41l-9.57-18.93A4,4,0,0,0,192.16,152.55Z"/><path class="cls-13" d="M191.33,160.47l-6,2.4L184,167.71l2.9,7.2,10.61,1.55-3.11-3.18.4-2.77s3-.92,3-1.38-.37-2-.83-2a22.16,22.16,0,0,0-3.56,1.08s3.68-2.91,3.58-3.38-.5-1.66-1.23-1.79-6.67,2.66-6.67,2.66l-1,2.2-.84-3.52S192.63,162.87,191.33,160.47Z"/><path class="cls-14" d="M192.08,171.82s-.15-.21-.2-.6a3.27,3.27,0,0,1,1-2.79c.29-.26.52-.35.54-.32a6.88,6.88,0,0,0-1.1,1.7A6.48,6.48,0,0,0,192.08,171.82Z"/><path class="cls-14" d="M189.23,170.77s.17-.59.23-1.58a7,7,0,0,1,.31-1.74,2.49,2.49,0,0,1,.55-.93,2.87,2.87,0,0,1,1-.62c1.44-.52,2.73-.94,3.68-1.24a7.68,7.68,0,0,1,1.55-.43,8.22,8.22,0,0,1-1.48.63c-.92.36-2.22.82-3.63,1.33a2.67,2.67,0,0,0-.88.54,2.42,2.42,0,0,0-.5.82,7.75,7.75,0,0,0-.36,1.67A3.2,3.2,0,0,1,189.23,170.77Z"/><path class="cls-14" d="M187.85,169.68c-.09,0-.07-.54,0-1.18s.26-1.15.34-1.13.07.54,0,1.18S187.93,169.7,187.85,169.68Z"/><path class="cls-8" d="M187.69,156.2a1.26,1.26,0,1,0,1.25-1.26A1.26,1.26,0,0,0,187.69,156.2Z"/><path class="cls-6" d="M153.11,346.81a12.22,12.22,0,0,1,7.28,6.18,21.58,21.58,0,0,1,2.23,9.47c.2,6.33-2.43,13.13-5.51,18.66-5.91-3.82-8.28-11.62-9.23-15.66-1.51-6.38-.35-18.82,5.23-18.65"/><path class="cls-6" d="M164.7,390.51a10.41,10.41,0,0,1,1.9-10.27,13.82,13.82,0,0,1,9.62-4.62c1.69-.12,3.56.11,4.72,1.34a4.46,4.46,0,0,1,.72,4.45,9.12,9.12,0,0,1-2.83,3.74c-4.13,3.51-8.77,6.15-14.13,5.36"/><path class="cls-5" d="M160.75,410.58a8.87,8.87,0,0,1,0-1.31c0-.92.08-2.12.13-3.55a36.57,36.57,0,0,1,2-11.56,22.3,22.3,0,0,1,6.7-9.58,14.86,14.86,0,0,1,3-1.9,8.32,8.32,0,0,1,.9-.37,1.1,1.1,0,0,1,.32-.1,24.08,24.08,0,0,0-4,2.62,23.08,23.08,0,0,0-6.48,9.49,39.53,39.53,0,0,0-2.06,11.42c-.11,1.49-.2,2.71-.28,3.54A6.75,6.75,0,0,1,160.75,410.58Z"/><path class="cls-5" d="M153.06,356.37a1.92,1.92,0,0,1,.15.54c.08.42.19.94.33,1.6.28,1.38.65,3.38,1.1,5.87.88,5,2,11.84,3.09,19.46s1.89,14.55,2.41,19.56c.26,2.51.46,4.54.57,6,0,.66.1,1.2.13,1.62a2.47,2.47,0,0,1,0,.57,2.33,2.33,0,0,1-.1-.56c-.06-.42-.13-1-.21-1.61-.18-1.46-.42-3.47-.72-5.93-.6-5-1.47-11.92-2.54-19.53s-2.16-14.5-3-19.48c-.4-2.44-.72-4.44-1-5.89-.1-.66-.18-1.19-.24-1.61A3.93,3.93,0,0,1,153.06,356.37Z"/><path class="cls-6" d="M156.18,395.62a24.36,24.36,0,0,0-15.72-15.73c-1.87-.58-4.24-.8-5.49.71s-.59,3.82.38,5.53a20.81,20.81,0,0,0,20.78,10"/><path class="cls-5" d="M142.17,385.67a6.54,6.54,0,0,1,1.19.33,12,12,0,0,1,1.35.48c.51.23,1.12.43,1.75.77a22.37,22.37,0,0,1,2,1.12,23.57,23.57,0,0,1,2.2,1.48,27.5,27.5,0,0,1,4.4,4.22,26.62,26.62,0,0,1,3.24,5.16,24,24,0,0,1,1,2.47,22.35,22.35,0,0,1,.65,2.23c.19.68.25,1.32.36,1.87a11.3,11.3,0,0,1,.16,1.43,6,6,0,0,1,0,1.23c-.1,0-.17-1.74-.88-4.45a19.3,19.3,0,0,0-.69-2.18,26.15,26.15,0,0,0-1-2.42,27.65,27.65,0,0,0-3.22-5.05,28.37,28.37,0,0,0-4.29-4.17c-.74-.55-1.45-1.08-2.15-1.5s-1.37-.81-2-1.15C143.82,386.26,142.14,385.77,142.17,385.67Z"/></g></g></svg>