<svg xmlns="http://www.w3.org/2000/svg" xmlns:xlink="http://www.w3.org/1999/xlink" viewBox="0 0 127.85 139.86"><defs><style>.cls-1{fill:none;}.cls-2{fill:#af9cda;opacity:0.4;}.cls-3{clip-path:url(#clip-path);}.cls-4{fill:#f2f2f2;}.cls-13,.cls-5{fill:#fff;}.cls-6{fill:#f9d9eb;}.cls-7,.cls-8{fill:#ef92c7;}.cls-7{opacity:0.46;}.cls-9{fill:#243762;}.cls-10{fill:#4c65ba;opacity:0.89;}.cls-11{fill:#c5d9ff;opacity:0.13;}.cls-12{fill:#f9f9f9;}.cls-13{font-size:23.83px;font-family:Colaborate-Bold, Colaborate Bold;font-weight:700;letter-spacing:-0.05em;}</style><clipPath id="clip-path"><circle class="cls-1" cx="66.97" cy="69.24" r="52.62" transform="translate(-11.96 124.47) rotate(-80.93)"/></clipPath></defs><title>register</title><g id="Layer_2" data-name="Layer 2"><g id="OBJECTS"><circle class="cls-2" cx="66.97" cy="69.24" r="52.62" transform="translate(-11.96 124.47) rotate(-80.93)"/><circle class="cls-2" cx="67.09" cy="60.76" r="60.76" transform="translate(-23.31 65.23) rotate(-45)"/><g class="cls-3"><path class="cls-4" d="M84.69,70H49.26C36.12,70,25.47,80.19,25.47,92.79v46.83h83V92.79C108.48,80.19,97.83,70,84.69,70Z"/><path class="cls-5" d="M45.16,91.88a.25.25,0,0,0-.25.25V101L40,89.49a.25.25,0,0,0-.46.19l5.33,12.58v37.36a.25.25,0,0,0,.49,0V92.13A.25.25,0,0,0,45.16,91.88Z"/><path class="cls-5" d="M94.82,89.36a.23.23,0,0,0-.32.13l-4.67,11V92.22a.25.25,0,1,0-.49,0v9.45l-.19.45a.23.23,0,0,0,.13.32h.06v37.17a.25.25,0,0,0,.49,0V101.77L95,89.68A.23.23,0,0,0,94.82,89.36Z"/><path class="cls-6" d="M75.33,66.93a7.22,7.22,0,0,1-1.55.18H60.91a7.22,7.22,0,0,1-1.55-.18,7.11,7.11,0,0,1-3.71-2.12v4.51a11.7,11.7,0,0,0,23.39,0V64.81A7.11,7.11,0,0,1,75.33,66.93Z"/><path class="cls-7" d="M60.91,67.11a7.22,7.22,0,0,1-1.55-.18,11.7,11.7,0,0,0,16,0,7.22,7.22,0,0,1-1.55.18Z"/><path class="cls-6" d="M52,46.17a0,0,0,0,1,0,0,.24.24,0,0,1-.09,0,.24.24,0,0,1-.24-.24,2.28,2.28,0,0,1,2.05-2.47V42.3a4.57,4.57,0,0,1-.29-.47,4.54,4.54,0,0,0,.29,8.82V48.79A3.08,3.08,0,0,1,52,46.17Z"/><path class="cls-6" d="M84.65,46.2a4.56,4.56,0,0,0-3.5-4.42c-.05.13-.1.27-.16.4v1.14l.3.13a2.31,2.31,0,0,1,2.17,2.49.24.24,0,0,1-.24.24h0A3.23,3.23,0,0,1,81,49v1.63A4.54,4.54,0,0,0,84.65,46.2Z"/><path class="cls-8" d="M83,45.94a1.84,1.84,0,0,0-1.82-2,.24.24,0,0,1-.17-.07V49a3.23,3.23,0,0,0,2.21-2.85A.22.22,0,0,1,83,45.94Z"/><path class="cls-8" d="M52.14,45.94a.24.24,0,0,1-.16.21,0,0,0,0,0,0,0,3.08,3.08,0,0,0,1.73,2.62V44A1.81,1.81,0,0,0,52.14,45.94Z"/><path class="cls-7" d="M81.16,43.44h.13l-.3-.13v.19A.24.24,0,0,1,81.16,43.44Z"/><path class="cls-9" d="M81,43.51v.35a.24.24,0,0,0,.17.07,1.84,1.84,0,0,1,1.82,2,.22.22,0,0,0,.22.23h0a.24.24,0,0,0,.24-.24,2.31,2.31,0,0,0-2.17-2.49h-.13A.24.24,0,0,0,81,43.51Z"/><path class="cls-9" d="M51.65,45.94a.24.24,0,0,0,.24.24.24.24,0,0,0,.09,0,.24.24,0,0,0,.16-.21,1.81,1.81,0,0,1,1.56-2v-.48A2.28,2.28,0,0,0,51.65,45.94Z"/><path class="cls-9" d="M81,43.86V42.18c.06-.13.11-.27.16-.4.3-.75.57-1.5.85-2.09,2.33-4.78,3.83-12.47-3.15-13.4a7.54,7.54,0,0,0-.94-.06,7.06,7.06,0,0,1-6-3.38l0,0a8.9,8.9,0,0,0-7.5-4.08,9.12,9.12,0,0,0-8.9,9.41A4.38,4.38,0,0,0,51.57,31a7.71,7.71,0,0,0-.17,3.58,30.45,30.45,0,0,0,1.2,5.35,9.46,9.46,0,0,0,.81,1.94,4.57,4.57,0,0,0,.29.47V59.89a7.23,7.23,0,0,0,5.66,7,7.22,7.22,0,0,0,1.55.18H73.78a7.22,7.22,0,0,0,1.55-.18,7.23,7.23,0,0,0,5.66-7v-16Z"/><path class="cls-6" d="M56.41,46.86V37.09a4.35,4.35,0,0,1,4-4.61h-.52A4.45,4.45,0,0,0,55.61,37V46.7A4.51,4.51,0,0,0,59,51.13,4.63,4.63,0,0,1,56.41,46.86Z"/><path class="cls-6" d="M74.69,32.48h-.45a4.35,4.35,0,0,1,4,4.61v9.77a4.65,4.65,0,0,1-2.43,4.22A4.51,4.51,0,0,0,79,46.7V37A4.44,4.44,0,0,0,74.69,32.48Z"/><path class="cls-7" d="M56.41,46.86V37.09a4.35,4.35,0,0,1,4-4.61h-.52A4.45,4.45,0,0,0,55.61,37V46.7A4.51,4.51,0,0,0,59,51.13,4.63,4.63,0,0,1,56.41,46.86Z"/><path class="cls-7" d="M74.69,32.48h-.45a4.35,4.35,0,0,1,4,4.61v9.77a4.65,4.65,0,0,1-2.43,4.22A4.51,4.51,0,0,0,79,46.7V37A4.44,4.44,0,0,0,74.69,32.48Z"/><path class="cls-6" d="M74.24,32.48h-.67a6.49,6.49,0,0,1-12.79,0h-.33a4.35,4.35,0,0,0-4,4.61v9.77A4.63,4.63,0,0,0,59,51.13a3.47,3.47,0,0,0,1.5.34h2.37a3.79,3.79,0,0,1,3.5-2.38h2.54a3.77,3.77,0,0,1,3.49,2.38h1.89a3.57,3.57,0,0,0,1.61-.39,4.65,4.65,0,0,0,2.43-4.22V37.09A4.35,4.35,0,0,0,74.24,32.48Z"/><path class="cls-9" d="M73.23,45.65h0a.57.57,0,0,0,.57-.57V44a.57.57,0,0,0-.57-.57h0a.56.56,0,0,0-.57.57v1.13A.56.56,0,0,0,73.23,45.65Z"/><path class="cls-9" d="M62,45.65h0a.56.56,0,0,0,.57-.57V44a.56.56,0,0,0-.57-.57h0a.57.57,0,0,0-.57.57v1.13A.57.57,0,0,0,62,45.65Z"/><path class="cls-9" d="M71.71,41.62a1.76,1.76,0,0,0,1,.35c.36.06.71.13,1,.21s.66.18,1,.3a1.69,1.69,0,0,0,1,.15c.3-.09.5-.5.31-1.13a2.57,2.57,0,0,0-1.81-1.63,2.32,2.32,0,0,0-2.28.59C71.46,40.93,71.48,41.4,71.71,41.62Z"/><path class="cls-9" d="M59.49,42.66a2,2,0,0,0,1.08-.13,10,10,0,0,1,1.06-.29c.33-.08.71-.14,1.09-.2a1.82,1.82,0,0,0,1-.34c.24-.23.22-.72-.26-1.21a2.78,2.78,0,0,0-2.53-.67,2.43,2.43,0,0,0-1.86,1.66C58.92,42.13,59.17,42.56,59.49,42.66Z"/><path class="cls-5" d="M67.94,57.08l-1.29.08c-.63,0-1.16-.29-1.18-.72l-.16-2.78,7.14-.32C72.66,57.09,70.54,56.94,67.94,57.08Z"/><path class="cls-9" d="M69.32,47.77H66.86a1.69,1.69,0,0,1-1.58-2.3l1.33-5.2a.26.26,0,0,1,.3-.18.24.24,0,0,1,.17.3l-1.34,5.22a1.2,1.2,0,0,0,1.12,1.67h2.46a.25.25,0,1,1,0,.49Z"/><path class="cls-10" d="M72,87l-1.17-2.34-1.41,2.72a1,1,0,0,1-.87.5H66.85a.94.94,0,0,1-.82-.45l-1.76-3L63.1,86.71l2.48,4.66s0,0,0,0L63,122.11a.84.84,0,0,0,0,.27l4.12,11.29a.64.64,0,0,0,1.21,0l3.86-11.28a1.07,1.07,0,0,0,0-.25L69.85,91.48a1.22,1.22,0,0,0,.12-.19Zm-2.16,17.84a.59.59,0,0,1,0,.13L68,110.41a.31.31,0,0,1-.59,0l-2-5.5a.29.29,0,0,1,0-.13L66.45,92l.18,0h2.24Z"/><path class="cls-10" d="M68.86,92H66.63l-.18,0-1.09,12.82a.29.29,0,0,0,0,.13l2,5.5a.31.31,0,0,0,.59,0l1.88-5.49a.59.59,0,0,0,0-.13l-1-12.8Z"/><path class="cls-11" d="M68.86,92H66.63l-.18,0-1.09,12.82a.29.29,0,0,0,0,.13l2,5.5a.31.31,0,0,0,.59,0l1.88-5.49a.59.59,0,0,0,0-.13l-1-12.8Z"/><path class="cls-10" d="M64.27,84.37l1.76,3a.94.94,0,0,0,.82.45h1.73a1,1,0,0,0,.87-.5l1.41-2.72L67.5,77.89Z"/><path class="cls-11" d="M64.27,84.37l1.76,3a.94.94,0,0,0,.82.45h1.73a1,1,0,0,0,.87-.5l1.41-2.72L67.5,77.89Z"/><polygon class="cls-5" points="80.28 66.72 67.5 77.14 54.73 66.72 48.35 76.3 62.45 88 63.1 86.71 64.27 84.37 67.5 77.89 70.86 84.61 72.03 86.94 72.56 88 86.66 76.3 80.28 66.72"/></g><path class="cls-6" d="M121.31,58.38a1.81,1.81,0,0,0-2.54.95c-.52,1.27-1,2.53-1.56,3.79.17-.42,1.3-9.84,1.34-10.71a4.71,4.71,0,0,0-.11-2.39,1.12,1.12,0,0,0-.88-.43,1.75,1.75,0,0,0-1.06.15,1.57,1.57,0,0,0-.66.79,4.33,4.33,0,0,0-.24,1c-.47,2.79-.95,5.58-1.34,8.39.08-3.85.46-7.67.7-11.51a4.75,4.75,0,0,0-.13-1.8,1.39,1.39,0,0,0-2.65-.25,4.76,4.76,0,0,0-.44,1.62c-.25,1.77-.51,3.53-.76,5.29L110.59,56l-.18,1.3a3.76,3.76,0,0,1-.22,1.25,17.15,17.15,0,0,1,.07-2.37l.09-2.49c.06-1.65.12-3.29.17-4.93a9,9,0,0,0-.06-1.8,2.85,2.85,0,0,0-.8-1.58,1.73,1.73,0,0,0-1.67-.42,1.86,1.86,0,0,0-.93.8,4.64,4.64,0,0,0-.47,1.15,34.21,34.21,0,0,0-.93,4.61c-.24,1.64-.46,3.29-.64,4.94-.08.67-.19,1.61-.89,1.94a1.08,1.08,0,0,1-1.5-.67c-.31-1.12-.59-2.24-.89-3.36a3.72,3.72,0,0,0-1.35-2.21,2.32,2.32,0,0,0-3.57,1.4,4.62,4.62,0,0,0,0,1.53c.56,5.43,1.08,10.87,1.6,16.31l16.85,4.09,6-14.18C122.05,59.34,121.83,58.7,121.31,58.38Z"/><path class="cls-7" d="M106.07,66.7a.24.24,0,0,0,.17-.18A8.36,8.36,0,0,0,103,57.94a.23.23,0,0,0-.23.39,7.79,7.79,0,0,1,3,8.11.22.22,0,0,0,.18.26Z"/><path class="cls-4" d="M97.43,71.13a2.67,2.67,0,0,0-3.27,2.21l-5.88,39.41v.75c0,15.23,22.3,16.7,24.32,1.6l4.89-36.64a2.67,2.67,0,0,0-2-2.95l-.22-.05L98.4,71.37Z"/><path class="cls-12" d="M116.28,85.41a.47.47,0,0,0,.4-.37.47.47,0,0,0-.36-.58L97.79,80.17s0,0,0,0l-1.09-5.4a.48.48,0,0,0-.57-.38.49.49,0,0,0-.38.57l1.09,5.4a1,1,0,0,0,.77.79L116.1,85.4A.37.37,0,0,0,116.28,85.41Z"/><path class="cls-12" d="M100.25,78.66a1.69,1.69,0,0,1-1.27-2h0a1.69,1.69,0,1,1,1.87,2.06A1.52,1.52,0,0,1,100.25,78.66Zm-.33-1.81h0a.73.73,0,0,0,1.42.33.74.74,0,0,0-.55-.88.75.75,0,0,0-.26,0A.74.74,0,0,0,99.92,76.85Z"/><path class="cls-10" d="M21.67,21.25A21.67,21.67,0,0,1,39.65,55c0,.06.14.73.23,1.17a13.63,13.63,0,0,0,3.95,6.92c1.94,1.64-3.82,2.93-8,.19a8.18,8.18,0,0,1-2.27-2.24l0,0A21.67,21.67,0,1,1,21.67,21.25Z"/><text class="cls-13" transform="translate(9.99 50.57)">hi!</text></g></g></svg>